<?xml version="1.0" standalone="no"?>
<!DOCTYPE svg PUBLIC "-//W3C//DTD SVG 20010904//EN"
 "http://www.w3.org/TR/2001/REC-SVG-20010904/DTD/svg10.dtd">
<svg version="1.0" xmlns="http://www.w3.org/2000/svg"
 width="600.000000pt" height="315.000000pt" viewBox="0 0 600.000000 315.000000"
 preserveAspectRatio="xMidYMid meet">
<metadata>
Created by potrace 1.15, written by Peter Selinger 2001-2017
</metadata>
<g transform="translate(0.000000,315.000000) scale(0.100000,-0.100000)"
fill="#000000" stroke="none">
<path d="M0 1575 l0 -1575 3000 0 3000 0 0 1575 0 1575 -3000 0 -3000 0 0
-1575z m2935 138 c142 -406 280 -800 306 -875 l49 -138 -239 0 -238 0 -43 150
-44 150 -281 0 -282 0 -43 -150 -44 -150 -239 0 c-199 0 -238 2 -234 14 8 20
566 1611 589 1679 l20 57 232 0 232 0 259 -737z m836 705 c176 -48 297 -116
405 -229 148 -156 215 -348 215 -618 -1 -400 -191 -689 -533 -809 -124 -43
-207 -56 -367 -57 l-144 0 -303 865 c-167 476 -304 869 -304 873 0 5 210 7
468 5 465 -4 467 -4 563 -30z"/>
<path d="M2420 1860 c-84 -280 -138 -465 -136 -468 2 -1 75 -1 163 0 l159 3
-76 255 c-42 140 -79 262 -82 270 -3 8 -15 -19 -28 -60z"/>
<path d="M3350 1574 l0 -477 113 5 c138 6 209 31 279 96 84 78 128 205 128
372 0 319 -148 480 -440 480 l-80 0 0 -476z"/>
</g>
</svg>
