<?xml version="1.0" standalone="no"?>
<!DOCTYPE svg PUBLIC "-//W3C//DTD SVG 20010904//EN"
 "http://www.w3.org/TR/2001/REC-SVG-20010904/DTD/svg10.dtd">
<svg version="1.0" xmlns="http://www.w3.org/2000/svg"
 width="407.000000pt" height="401.000000pt" viewBox="0 0 407.000000 401.000000"
 preserveAspectRatio="xMidYMid meet">
<metadata>
Created by potrace 1.15, written by Peter Selinger 2001-2017
</metadata>
<g transform="translate(0.000000,401.000000) scale(0.100000,-0.100000)"
fill="#000000" stroke="none">
<path d="M1840 3998 c-607 -57 -1165 -389 -1504 -896 -525 -786 -422 -1822
249 -2496 721 -724 1862 -806 2679 -193 749 563 1007 1542 632 2397 -195 445
-597 839 -1049 1030 -325 137 -665 191 -1007 158z m250 -12 c0 -3 -6 -11 -14
-19 -12 -12 5 -14 126 -15 76 -1 143 -4 148 -7 5 -3 11 -1 15 5 3 5 11 10 16
10 6 0 7 -5 3 -12 -5 -8 3 -9 30 -5 24 4 34 2 30 -4 -4 -7 3 -10 17 -9 13 1
27 2 32 1 4 -1 9 0 10 2 2 1 12 -5 22 -13 11 -9 16 -10 11 -2 -10 17 -15 18
139 -33 312 -103 543 -245 773 -474 119 -119 192 -206 263 -311 24 -36 46 -67
50 -70 13 -10 108 -198 143 -282 154 -373 186 -808 90 -1206 -15 -61 -31 -109
-35 -107 -4 3 -5 -5 -1 -17 4 -16 2 -19 -8 -13 -9 5 -11 4 -6 -4 10 -16 -22
-108 -40 -115 -7 -3 -14 -11 -14 -18 0 -9 3 -8 10 2 11 17 13 10 4 -14 -3 -9
-10 -13 -15 -10 -5 3 -6 -1 -3 -9 3 -8 -2 -17 -11 -21 -9 -3 -13 -10 -10 -16
3 -6 3 -20 0 -31 -5 -15 -10 -18 -15 -9 -5 8 -9 5 -13 -9 -3 -12 -1 -18 4 -15
5 3 4 -6 -2 -20 -7 -14 -15 -24 -18 -22 -3 2 -12 -2 -19 -10 -7 -8 -10 -14 -7
-14 3 0 3 -5 -1 -11 -4 -8 -9 -7 -16 2 -7 11 -8 9 -4 -4 6 -20 -25 -72 -56
-95 -20 -14 -25 -38 -6 -26 7 4 8 3 4 -5 -4 -6 -11 -9 -15 -6 -5 2 -19 -7 -32
-21 -12 -13 -29 -22 -37 -19 -7 2 -10 0 -7 -5 4 -6 17 -8 31 -6 14 3 22 1 19
-5 -4 -5 -11 -6 -17 -3 -7 5 -9 1 -5 -9 3 -9 1 -19 -5 -23 -7 -5 -8 -2 -3 6 6
10 3 12 -13 8 -12 -4 -22 -2 -22 2 0 5 -15 -6 -32 -24 -18 -18 -43 -36 -55
-40 -13 -4 -22 -10 -20 -14 1 -4 -2 -9 -7 -12 -4 -3 -56 -53 -115 -111 -128
-128 -204 -190 -330 -273 -367 -242 -823 -362 -1241 -325 -184 16 -176 14
-212 54 -18 21 -37 44 -41 51 -12 21 -33 17 -52 -12 -19 -29 -17 -33 15 -39
13 -3 28 -9 34 -15 8 -8 7 -10 -4 -6 -8 3 -34 10 -58 16 l-42 11 23 22 c64 61
65 62 84 41 10 -10 36 -35 59 -55 37 -32 45 -35 97 -34 31 1 57 -2 57 -7 0 -4
17 -8 38 -8 28 0 33 3 22 11 -11 7 -3 9 30 7 25 -1 51 1 57 5 6 4 21 3 33 -1
22 -8 41 4 115 73 12 11 33 29 46 40 l24 20 -17 -21 c-23 -27 -23 -29 9 -49
30 -20 117 -30 107 -13 -4 6 -2 8 4 4 14 -8 156 22 160 34 2 6 16 10 31 10 15
0 31 4 37 9 5 5 26 14 46 21 21 6 38 16 38 22 0 6 15 8 34 6 19 -2 34 -1 33 3
-3 12 94 60 105 52 8 -4 9 0 5 11 -4 9 -3 15 2 12 5 -3 28 6 52 19 24 14 52
28 62 31 10 4 16 13 13 21 -3 7 0 13 7 12 30 -4 46 3 68 26 13 13 29 25 36 25
7 0 17 9 23 20 6 11 15 18 20 15 11 -7 70 50 70 66 0 5 6 9 13 8 28 -3 48 2
42 11 -8 13 14 42 26 34 5 -2 11 7 15 21 3 13 10 23 14 20 4 -2 15 4 25 15 14
16 16 23 7 32 -10 10 -34 -9 -107 -82 -52 -52 -97 -91 -101 -87 -4 3 18 30 47
58 106 102 245 239 328 322 l84 85 -24 34 c-21 31 -21 32 -2 15 12 -11 26 -16
32 -12 7 3 8 0 5 -9 -9 -23 -1 -20 27 11 15 17 17 22 5 13 -18 -14 -18 -14 -6
7 8 12 18 19 24 16 5 -4 7 1 3 11 -6 14 -3 17 8 12 13 -5 14 -2 4 17 -6 12 -8
19 -3 14 11 -10 60 71 74 122 6 25 17 41 26 41 10 0 13 7 8 25 -4 18 -1 27 10
31 9 3 16 17 16 30 0 14 12 57 26 97 31 86 54 177 59 232 2 22 5 51 7 65 2 21
-1 25 -19 23 -24 -3 -32 12 -10 20 9 3 8 8 -3 22 -14 16 -13 17 6 11 24 -7 60
25 49 44 -4 6 -1 17 5 25 8 9 9 29 5 57 -6 35 -9 39 -16 23 -4 -11 -8 -14 -8
-7 -1 7 4 22 10 33 6 13 7 25 1 32 -14 19 -23 49 -12 42 6 -3 10 1 10 9 0 9 5
16 10 16 13 0 13 -13 0 -26 -11 -11 -3 -44 10 -44 4 0 11 -33 15 -72 5 -40 10
-67 12 -60 5 14 -11 154 -29 245 -7 40 -14 54 -20 45 -6 -8 -7 -4 -3 12 3 14
-1 45 -9 70 -14 44 -14 44 -24 19 -6 -14 -16 -44 -23 -67 -19 -65 -31 -55 -44
38 -17 117 -107 400 -127 400 -4 0 -8 7 -8 16 0 9 -16 46 -36 82 -195 357
-505 629 -863 756 -650 232 -1491 -59 -1888 -654 -28 -41 -60 -94 -71 -117
-33 -63 -83 -193 -80 -206 1 -7 -3 -21 -9 -32 -6 -11 -13 -36 -17 -55 l-6 -35
13 28 c7 15 16 24 20 21 4 -4 7 -2 7 5 0 7 5 9 12 5 7 -4 8 -3 4 4 -4 7 3 16
17 21 14 6 32 20 40 31 9 12 20 19 26 15 6 -3 14 1 17 10 6 14 9 14 16 3 7 -9
8 -5 4 12 -4 21 -1 25 20 26 20 2 23 -1 13 -12 -7 -8 -9 -17 -6 -20 8 -9 29
35 22 46 -4 6 -2 9 3 8 5 -2 37 39 71 90 121 179 303 345 481 436 273 140 613
179 926 106 170 -40 368 -131 502 -232 81 -61 76 -57 70 -63 -9 -9 -193 -51
-330 -76 -71 -13 -128 -26 -128 -29 0 -3 76 -29 168 -59 202 -65 392 -140 530
-210 101 -51 103 -52 128 -109 127 -283 142 -664 38 -954 -26 -72 -88 -200
-139 -288 l-26 -45 26 30 c40 47 110 172 149 266 100 244 127 488 80 744 -10
60 -36 150 -50 177 -8 15 -14 36 -14 48 0 20 2 19 43 -9 36 -24 49 -43 77
-108 80 -192 112 -351 109 -556 l-1 -139 31 -19 c36 -22 71 -74 71 -107 0 -35
-27 -92 -44 -92 -13 0 -13 4 0 36 20 47 10 87 -28 119 -43 36 -55 20 -13 -19
25 -24 35 -42 35 -64 0 -40 -42 -90 -83 -97 -29 -6 -35 -15 -69 -93 -21 -48
-66 -130 -100 -182 -100 -152 -316 -359 -478 -457 -152 -92 -331 -174 -338
-154 -2 6 -7 11 -12 11 -4 0 -2 -24 5 -52 13 -59 5 -107 -22 -129 -15 -13 -16
-11 -9 11 20 72 19 86 -10 118 -30 32 -74 51 -74 33 0 -6 9 -11 20 -11 14 0
27 -14 42 -45 21 -42 21 -47 6 -78 -34 -70 -129 -84 -184 -26 -24 25 -28 38
-29 88 0 43 5 64 18 79 15 16 15 20 4 25 -9 3 -14 -1 -13 -11 1 -14 -13 -18
-87 -22 -49 -3 -98 -1 -110 4 -12 4 -37 8 -54 7 -27 0 -33 3 -34 22 0 12 -3
16 -6 10 -2 -7 -10 -13 -17 -13 -7 0 -21 -9 -32 -21 -10 -12 -32 -31 -49 -42
l-30 -22 22 31 c12 17 29 37 38 44 8 7 15 17 15 23 0 7 -4 7 -12 -1 -14 -14
-32 -16 -24 -4 3 5 -12 10 -32 11 -69 4 -87 8 -85 20 2 6 1 11 -1 11 -34 0
-115 25 -132 41 -13 12 -28 18 -35 14 -7 -5 -10 -4 -6 2 4 6 -5 21 -18 33 -14
13 -25 18 -25 12 0 -6 8 -15 17 -21 10 -5 15 -13 10 -17 -4 -4 -16 1 -28 12
-20 18 -20 18 -15 -11 5 -29 5 -29 -6 3 -7 20 -18 32 -29 32 -25 0 -49 11 -49
22 0 5 5 6 10 3 6 -3 10 1 10 11 0 13 -3 14 -14 5 -15 -13 -36 -6 -94 29 -18
11 -37 18 -41 16 -4 -3 -12 4 -19 15 -10 16 -9 19 5 20 13 0 11 3 -7 11 -14 6
-33 10 -43 9 -9 -1 -20 4 -23 13 -3 8 -12 12 -21 9 -12 -5 -14 -1 -8 15 9 30
-4 27 -42 -9 -18 -16 -33 -26 -33 -22 0 12 30 56 49 71 14 12 13 13 -9 7 -35
-8 -77 34 -61 63 8 16 5 24 -22 48 l-32 29 28 -31 c28 -32 28 -36 -12 -59 -9
-5 -12 -4 -8 2 4 6 0 13 -8 17 -8 3 -15 12 -15 20 0 7 -7 17 -16 20 -9 3 -12
11 -8 18 5 7 2 9 -8 5 -25 -9 -30 4 -12 30 15 24 15 24 -9 9 -23 -15 -24 -15
-35 8 -8 19 -8 26 1 30 7 3 2 3 -10 0 -24 -6 -32 11 -10 19 6 3 1 5 -13 4 -14
0 -35 -9 -47 -20 -35 -31 -36 -15 -2 26 23 27 26 37 15 37 -9 0 -16 -5 -16
-12 0 -6 -2 -9 -5 -6 -3 3 0 17 6 31 l12 26 19 -22 c17 -19 17 -18 -1 8 -36
52 -80 100 -81 88 0 -7 3 -13 8 -13 14 -1 42 -49 36 -64 -9 -25 -26 -19 -19 7
4 15 3 18 -3 8 -11 -15 -27 2 -17 19 3 5 1 10 -4 10 -6 0 -11 10 -11 21 0 16
-5 20 -18 17 -14 -4 -17 1 -16 21 3 37 4 38 14 14 5 -13 14 -23 20 -23 16 0
-17 43 -35 46 -9 1 -15 -6 -16 -19 -1 -20 -1 -20 -9 3 -4 14 -15 38 -23 54 -9
16 -13 34 -10 39 8 13 24 -6 26 -31 0 -11 5 -18 11 -15 5 4 7 -1 3 -10 -4 -11
-2 -14 8 -11 10 4 5 20 -23 67 -21 34 -43 75 -50 91 -7 16 -15 26 -18 23 -3
-3 -1 -15 6 -26 6 -12 7 -21 1 -21 -11 0 -24 47 -16 59 3 5 -2 11 -10 15 -8 3
-15 10 -15 16 0 6 4 9 9 6 5 -4 -2 23 -17 59 -17 43 -28 61 -34 53 -4 -7 -8
-10 -8 -6 0 3 -3 14 -7 24 -5 13 -3 15 7 9 10 -6 12 -4 7 10 -4 9 -15 50 -24
89 -16 68 -17 70 -24 36 -3 -19 -7 -27 -8 -17 -2 25 -12 21 -56 -18 l-39 -34
29 -33 c25 -27 26 -29 5 -13 -14 11 -28 24 -31 29 -4 5 -12 5 -18 2 -21 -13
-11 0 55 69 l65 70 -6 60 c-14 148 -18 170 -26 150 -6 -16 -8 -14 -8 13 -1 20
5 35 14 38 17 7 21 80 5 104 -6 10 -8 -2 -5 -37 5 -45 3 -52 -11 -46 -9 3 -11
8 -5 12 13 9 -13 62 -45 92 -24 22 -26 23 -35 6 -6 -9 -15 -17 -21 -17 -6 0
-3 9 7 20 15 16 15 22 5 35 -7 9 -8 15 -2 15 6 0 13 -6 15 -12 3 -8 25 9 55
42 30 33 47 59 41 64 -5 6 -4 15 2 23 7 7 7 13 2 13 -13 0 -14 42 -1 57 5 7 8
26 6 43 -3 16 -1 30 4 30 4 0 8 8 8 18 0 10 9 28 20 40 24 25 25 32 5 32 -21
0 -19 17 4 30 12 6 24 29 30 57 6 27 13 56 16 67 2 10 12 24 22 32 14 10 16
17 7 31 -9 14 -7 21 9 36 11 9 17 17 12 17 -4 0 -3 6 2 13 13 15 63 106 63
113 0 3 -5 2 -11 -1 -6 -4 -5 2 3 14 7 12 15 16 17 10 3 -11 31 24 58 76 11
22 -3 12 -54 -37 -38 -38 -72 -68 -76 -68 -4 0 -22 -17 -42 -37 -19 -21 -35
-33 -35 -28 0 6 86 95 190 200 l190 189 -22 23 c-28 30 -15 43 16 14 22 -20
24 -21 37 -4 12 15 12 16 -5 10 -16 -6 -17 -5 -6 8 7 8 16 12 21 9 5 -3 17 0
26 5 17 10 16 10 -2 11 -18 0 -17 2 5 15 14 8 31 17 39 21 7 4 25 17 38 30 14
13 31 21 37 17 8 -5 8 -3 0 8 -21 26 -36 89 -29 120 6 26 18 36 81 66 83 40
103 39 153 -6 l33 -29 36 18 c122 62 458 150 569 150 30 0 50 7 70 25 29 25
33 28 33 21z"/>
</g>
</svg>
