<?xml version="1.0" standalone="no"?>
<!DOCTYPE svg PUBLIC "-//W3C//DTD SVG 20010904//EN"
 "http://www.w3.org/TR/2001/REC-SVG-20010904/DTD/svg10.dtd">
<svg version="1.0" xmlns="http://www.w3.org/2000/svg"
 width="800.000000pt" height="450.000000pt" viewBox="0 0 800.000000 450.000000"
 preserveAspectRatio="xMidYMid meet">
<metadata>
Created by potrace 1.15, written by Peter Selinger 2001-2017
</metadata>
<g transform="translate(0.000000,450.000000) scale(0.100000,-0.100000)"
fill="#000000" stroke="none">
<path d="M0 4319 c-1 -163 1 -183 17 -196 17 -14 17 -14 0 -9 -16 5 -17 -15
-17 -327 l0 -332 30 -1 c20 -1 30 4 30 13 0 19 40 52 63 53 9 0 17 -7 17 -16
0 -8 -4 -12 -10 -9 -5 3 -10 2 -10 -4 0 -5 8 -15 18 -21 15 -10 15 -11 -3 -7
-11 3 -29 8 -39 13 -12 5 -17 4 -13 -3 4 -6 1 -22 -6 -37 -13 -27 -42 -35 -50
-13 -3 7 -6 5 -6 -5 -1 -10 -5 -18 -11 -18 -7 0 -10 -222 -10 -645 l0 -645 25
0 c13 0 28 -6 32 -12 19 -31 61 -41 180 -46 66 -3 126 -8 132 -12 8 -5 6 -19
-7 -48 -14 -31 -21 -39 -30 -30 -8 8 -26 8 -64 0 -33 -6 -55 -7 -59 -1 -7 11
-178 7 -196 -4 -10 -6 -13 -99 -13 -407 0 -370 1 -398 18 -405 16 -6 16 -7 -1
-19 -16 -12 -17 -50 -17 -570 l1 -556 165 0 166 0 -33 41 c-18 22 -47 51 -65
62 -19 12 -34 25 -34 29 0 12 62 58 88 65 15 3 38 15 52 25 25 20 25 20 47 -7
13 -14 23 -39 23 -56 0 -23 4 -29 23 -30 12 0 16 -3 10 -6 -10 -3 -9 -11 2
-33 8 -16 15 -35 15 -42 -1 -7 -7 1 -14 17 l-13 30 -8 -27 c-4 -15 -2 -35 5
-47 l11 -21 852 2 c839 3 852 3 856 23 9 49 61 48 61 -1 l0 -24 2895 0 2895 0
0 1104 c0 878 -2 1105 -12 1109 -10 4 -10 6 0 6 8 1 12 22 12 72 0 66 -1 71
-20 66 -25 -7 -26 10 -1 18 15 5 19 16 20 59 0 52 -1 54 -31 60 -18 3 -36 2
-42 -4 -16 -16 -26 -12 -26 9 0 23 22 40 28 23 2 -7 19 -12 38 -12 27 0 34 4
34 20 0 15 -9 21 -40 26 -22 4 -37 10 -34 15 2 4 12 5 21 2 11 -5 14 -3 8 6
-6 10 -3 11 13 2 11 -6 23 -11 26 -11 11 0 6 56 -6 68 -10 10 -10 15 1 21 7 5
10 14 7 20 -4 6 -11 9 -16 6 -5 -3 -11 -1 -15 5 -3 5 2 10 13 10 17 0 19 7 18
68 -1 61 -3 67 -21 64 -11 -1 -44 -5 -72 -9 -29 -3 -53 -9 -53 -13 0 -13 -72
-51 -85 -46 -7 2 -17 0 -23 -6 -7 -7 -17 -4 -31 9 -20 19 -20 19 -1 31 17 10
20 10 20 -3 0 -8 4 -15 10 -15 15 0 79 34 80 43 0 5 -4 6 -9 2 -5 -3 -12 -1
-15 3 -3 5 6 14 20 21 19 8 25 18 24 39 -3 43 -1 47 14 27 13 -18 14 -17 29 6
20 30 13 63 -16 77 -19 9 -19 11 -4 11 20 1 50 -23 41 -32 -9 -9 33 -27 49
-21 25 9 29 -14 5 -27 -17 -9 -23 -9 -26 0 -3 8 -9 6 -18 -6 -20 -27 -17 -43
10 -43 13 0 26 -7 30 -15 3 -8 15 -15 26 -15 18 0 20 6 20 54 0 44 -5 60 -26
86 -15 17 -32 29 -39 26 -7 -2 -21 2 -32 10 -17 14 -16 15 15 10 24 -4 32 -2
32 9 0 19 9 19 32 -2 17 -15 18 -15 18 10 0 18 -7 28 -22 33 -13 4 -24 2 -26
-5 -2 -6 -17 -11 -33 -11 -37 0 -30 16 10 25 16 3 32 13 35 20 3 9 12 12 21 9
14 -6 16 17 14 217 0 137 -5 229 -11 237 -7 8 -7 12 1 12 6 0 11 5 11 10 0 6
-7 10 -15 10 -8 0 -15 -4 -15 -9 0 -6 -17 -8 -37 -6 -54 4 -53 4 -53 14 0 5
27 12 60 16 l60 7 0 308 c0 237 -3 309 -12 313 -10 4 -10 6 0 6 9 1 12 32 12
120 l0 120 -177 0 c-158 0 -182 -2 -213 -19 -19 -10 -29 -19 -22 -20 17 0 15
-20 -3 -20 -8 0 -15 5 -15 11 0 6 -8 18 -17 27 -15 15 -59 17 -437 19 -325 2
-422 0 -429 -10 -7 -9 -10 -9 -14 1 -3 9 -52 12 -201 11 -232 -2 -254 -5 -259
-38 -2 -14 -6 -27 -10 -30 -3 -3 -3 11 0 32 6 37 5 37 -29 37 -19 0 -34 -5
-34 -11 0 -6 9 -9 20 -6 23 6 23 6 10 -27 -5 -14 -17 -26 -26 -26 -13 0 -14
-3 -5 -14 8 -9 8 -16 2 -20 -5 -4 -12 -2 -16 4 -3 5 -3 10 2 10 4 0 2 4 -5 8
-9 6 -5 12 13 22 33 18 32 26 -7 35 -72 14 -118 17 -118 6 0 -11 8 -13 60 -15
15 -1 25 -7 25 -16 0 -8 -6 -14 -13 -12 -7 1 -15 -5 -18 -13 -4 -10 -13 -13
-26 -9 -10 3 -26 0 -34 -7 -9 -8 -18 -9 -22 -3 -12 16 -42 13 -42 -4 0 -9 -8
-1 -19 18 -18 34 -11 57 13 43 6 -4 5 -8 -2 -11 -23 -7 -12 -23 16 -20 20 2
26 8 24 22 -3 14 1 17 12 13 11 -5 16 -1 16 13 0 17 -8 19 -87 18 -49 0 -91
-4 -94 -10 -4 -7 -19 -6 -43 3 -31 11 -40 11 -70 -4 -24 -11 -34 -12 -30 -4 3
8 -8 13 -36 13 -22 1 -40 -2 -40 -7 0 -5 6 -9 14 -9 7 0 19 -7 26 -15 11 -13
8 -15 -13 -15 -14 0 -28 -6 -30 -12 -4 -9 -6 -7 -6 3 -1 13 -38 39 -56 39 -16
0 -1 -19 18 -23 19 -4 18 -4 -5 -6 -29 -1 -38 -17 -13 -23 10 -2 12 -7 5 -18
-7 -12 -12 -12 -29 4 -11 10 -18 22 -16 26 3 4 -2 10 -10 14 -20 7 -19 26 2
26 9 0 14 3 10 6 -11 12 -269 15 -282 4 -9 -8 -15 -8 -20 0 -8 13 -255 14
-255 0 0 -5 5 -10 12 -10 6 0 3 -7 -8 -15 -17 -13 -17 -14 -2 -15 9 0 20 -5
23 -10 4 -7 -8 -10 -34 -8 -43 3 -55 22 -20 31 12 3 19 12 17 19 -3 10 -33 13
-114 15 -60 0 -101 -1 -91 -4 25 -7 21 -23 -5 -20 -14 1 -22 -3 -21 -10 2 -7
-4 -13 -12 -13 -11 0 -14 7 -9 23 l5 24 -186 2 c-124 1 -184 -2 -180 -9 3 -5
2 -10 -4 -10 -5 0 -13 5 -16 10 -10 16 -47 12 -61 -7 -12 -16 -13 -16 -14 -2
0 17 -28 21 -77 13 -26 -5 -32 -24 -8 -24 8 0 15 -4 15 -10 0 -14 -11 -12 -34
5 -10 7 -15 18 -11 24 3 6 -1 11 -10 11 -11 0 -15 -5 -11 -15 3 -8 1 -15 -4
-15 -6 0 -10 7 -10 15 0 26 -57 19 -76 -10 -20 -30 -38 -33 -29 -5 5 15 3 18
-9 14 -9 -3 -16 -1 -16 5 0 13 -148 14 -222 2 -27 -4 -48 -4 -48 0 0 4 -825 8
-1834 8 l-1834 1 -2 -181z m3054 -222 c9 9 7 -40 -2 -55 -7 -10 -15 -10 -37
-2 -19 7 -32 7 -38 1 -13 -13 9 -41 33 -41 9 0 20 -3 24 -7 4 -5 12 -8 17 -8
5 0 9 -4 9 -10 1 -16 -53 -18 -65 -3 -12 15 -45 20 -45 7 0 -5 7 -12 15 -15
22 -9 18 -24 -5 -24 -18 0 -19 -3 -10 -20 6 -11 17 -20 25 -20 8 0 15 -4 15
-10 0 -5 -8 -10 -17 -10 -15 0 -15 -2 -4 -9 8 -5 21 -7 30 -4 12 5 13 3 5 -6
-7 -7 -22 -11 -35 -9 -23 3 -40 42 -40 91 0 25 -42 22 -68 -5 -11 -13 -30 -34
-41 -48 l-21 -25 7 25 c8 31 77 100 99 100 9 0 15 6 12 13 -2 6 0 20 5 31 8
15 12 16 19 5 4 -7 11 -10 14 -7 4 4 0 17 -8 29 -14 20 -14 25 -1 51 l15 28
43 -24 c24 -14 47 -22 50 -19z m4486 -79 l-25 -10 25 -9 c15 -6 31 -22 38 -41
14 -37 12 -41 -28 -42 -33 -1 -42 -16 -10 -16 11 0 20 -6 20 -13 0 -7 9 -20
20 -30 25 -21 26 -40 3 -35 -11 2 -17 11 -15 21 2 14 -2 16 -21 12 -20 -5 -26
-2 -31 20 -9 37 -100 71 -117 44 -5 -9 -11 -8 -24 4 -9 10 -12 17 -7 17 5 0
12 9 15 20 6 25 29 27 25 3 -2 -13 3 -17 17 -15 11 2 22 8 23 13 2 5 10 9 18
9 8 0 14 6 14 13 0 15 48 47 70 46 8 0 4 -5 -10 -11z m-2304 -60 c-3 -18 -5
-37 -5 -42 -1 -5 -15 -6 -32 -2 -27 5 -30 4 -19 -9 7 -8 21 -15 31 -15 11 0
18 -5 17 -11 -3 -11 64 -39 95 -39 19 0 22 13 7 41 -15 27 3 24 37 -5 22 -19
25 -27 16 -38 -15 -17 -71 -22 -88 -8 -10 8 -15 8 -20 -1 -8 -12 11 -29 33
-29 6 0 12 -4 12 -10 0 -5 -7 -10 -15 -10 -8 0 -15 4 -15 9 0 10 -23 21 -55
27 -11 2 -33 7 -50 10 -27 7 -29 6 -16 -10 10 -12 11 -20 4 -27 -7 -7 -15 -1
-26 20 -15 30 -15 31 7 37 12 3 34 0 50 -5 33 -13 46 -14 46 -2 0 17 -56 30
-135 32 -44 0 -89 -1 -100 -4 -11 -2 -14 -2 -7 0 19 7 14 23 -8 23 -18 0 -25
-10 -21 -32 0 -5 -6 -8 -14 -8 -9 0 -12 -6 -9 -15 4 -10 0 -15 -14 -15 -31 0
-34 15 -7 30 17 9 25 22 25 40 0 25 3 27 34 24 22 -1 36 3 40 11 3 8 13 14 23
15 142 5 157 7 164 29 12 31 19 26 15 -11z m-117 -119 c-5 -10 -4 -20 4 -28 9
-9 9 -16 -1 -31 -17 -27 -16 -29 21 -28 31 1 98 -10 105 -17 2 -2 -8 -11 -23
-21 -22 -14 -30 -15 -47 -5 -24 15 -58 5 -58 -16 0 -9 3 -13 7 -10 3 4 13 2
20 -5 11 -9 16 -9 22 1 6 10 11 9 23 -3 9 -8 18 -12 22 -9 3 4 6 1 6 -6 0 -7
-9 -9 -25 -5 -14 3 -37 -1 -56 -10 -17 -9 -35 -13 -40 -11 -4 3 -10 1 -13 -4
-8 -12 21 -35 50 -39 22 -2 24 0 18 22 -5 21 -2 24 20 22 14 0 26 -4 26 -8 0
-5 14 -8 32 -8 29 0 30 1 14 13 -17 12 -17 14 -3 20 10 4 20 -1 26 -11 6 -9
11 -12 11 -5 0 7 7 10 16 6 13 -5 15 -1 10 18 -3 13 -3 18 0 12 3 -7 10 -13
16 -13 6 0 17 -8 24 -17 9 -12 13 -14 14 -5 0 7 4 11 10 7 14 -9 -1 -37 -17
-31 -7 3 -34 3 -59 -1 -43 -6 -44 -7 -27 -23 16 -16 21 -16 41 -4 20 13 25 12
56 -11 18 -14 44 -26 57 -26 23 -2 23 -2 2 -6 -12 -2 -31 1 -43 7 -12 6 -36 8
-57 4 -31 -6 -34 -8 -18 -15 19 -7 19 -8 -2 -8 -15 -1 -23 5 -23 17 0 11 -3
13 -8 6 -5 -8 -23 -9 -57 -4 -53 8 -69 5 -59 -12 4 -6 -2 -5 -15 1 -16 9 -21
9 -19 0 2 -7 -5 -15 -14 -17 -10 -2 -18 1 -18 7 0 6 6 11 13 11 9 0 9 2 -1 9
-7 4 -14 20 -16 34 -1 15 -11 36 -21 47 -16 18 -16 20 -1 26 9 3 13 10 10 16
-3 5 -11 4 -20 -3 -11 -9 -14 -8 -14 4 0 8 -6 17 -12 20 -7 2 1 4 19 3 17 -1
35 -5 39 -9 12 -12 24 -8 24 8 0 9 -6 12 -15 9 -9 -4 -15 0 -15 10 0 20 -17
21 -22 1 -2 -13 -6 -12 -20 5 -17 19 -17 20 2 20 13 0 24 10 30 26 8 19 15 24
30 19 11 -3 20 -2 20 3 0 17 -40 21 -55 5 -8 -8 -15 -18 -15 -23 0 -4 -9 -6
-20 -3 -11 3 -20 0 -20 -6 0 -6 -5 -11 -11 -11 -8 0 -8 4 0 14 10 12 8 17 -8
26 -30 16 -28 44 3 36 15 -4 28 0 37 10 7 8 21 13 31 11 10 -3 18 -2 18 1 0 4
11 7 24 7 19 0 22 -3 15 -16z m-888 -42 c69 -1 86 -4 82 -15 -3 -7 -12 -11
-19 -8 -9 3 -14 -2 -14 -14 0 -11 -5 -20 -11 -20 -5 0 -7 5 -4 10 10 16 -7 12
-19 -5 -14 -19 -60 -9 -52 11 7 18 -4 17 -28 -1 -23 -17 -13 -35 20 -35 20 0
24 -4 19 -19 -3 -11 -1 -22 5 -26 6 -4 9 -19 5 -34 -5 -23 -1 -31 20 -45 14
-9 30 -14 35 -11 5 3 11 1 15 -5 11 -17 60 -11 78 10 27 32 38 13 15 -26 -14
-24 -26 -33 -36 -29 -8 3 -19 0 -24 -7 -6 -10 -8 -10 -8 0 0 6 -9 12 -20 12
-11 0 -20 -4 -20 -10 0 -5 -7 -10 -16 -10 -14 0 -14 3 -4 15 10 12 10 15 -4
15 -9 0 -16 -7 -16 -15 0 -8 -6 -12 -13 -9 -7 2 -13 16 -12 31 0 15 -6 28 -15
30 -13 4 -13 3 -1 -5 12 -8 12 -14 3 -25 -7 -7 -8 -18 -4 -22 4 -5 1 -5 -6 -1
-7 4 -26 5 -42 1 -22 -5 -30 -12 -30 -29 0 -12 -5 -27 -10 -32 -7 -7 -5 -16 4
-29 11 -15 17 -17 28 -7 8 6 18 9 21 5 4 -3 7 2 8 13 0 10 3 14 5 8 3 -7 14
-10 24 -7 17 5 18 2 7 -26 -13 -34 -22 -39 -31 -16 -4 12 -10 13 -32 3 -22
-10 -28 -10 -32 0 -5 17 -22 15 -22 -2 0 -17 -18 -31 -28 -21 -3 3 -2 9 4 13
6 4 14 17 18 30 6 19 4 22 -18 22 -14 0 -28 5 -32 12 -5 8 0 9 14 6 26 -7 41
10 21 23 -8 5 -9 9 -3 9 5 0 15 -5 21 -11 8 -8 13 -3 18 19 5 23 11 29 23 26
11 -4 9 2 -7 16 -20 17 -22 23 -11 33 10 9 13 9 17 -1 3 -6 9 -9 15 -6 7 4 6
9 -2 14 -20 12 -2 30 30 30 16 0 32 5 35 11 12 18 -4 24 -35 12 -18 -7 -32 -7
-38 -1 -6 6 -12 6 -16 -1 -9 -14 -46 -14 -46 -1 0 6 5 10 11 10 6 0 9 7 5 15
-3 8 -2 15 2 15 4 0 7 18 5 39 -1 31 2 40 18 44 13 4 17 10 12 23 -5 14 -3 16
13 10 10 -5 58 -9 105 -9z m352 -56 c4 -16 12 -18 58 -13 30 2 59 8 65 13 7 5
24 2 44 -8 24 -12 35 -13 38 -5 3 9 9 9 25 0 16 -8 22 -8 25 1 6 18 30 13 42
-8 7 -15 6 -23 -6 -35 -23 -24 -30 -19 -8 5 19 22 19 22 -4 10 -12 -6 -33 -34
-47 -60 -13 -27 -35 -57 -48 -68 -25 -19 -45 -73 -27 -73 5 0 10 6 10 14 0 8
7 16 15 20 9 3 15 0 15 -9 0 -8 -4 -15 -10 -15 -5 0 -7 -6 -4 -13 3 -8 -5 -13
-20 -15 -31 -2 -40 11 -26 38 8 15 8 20 -1 20 -8 0 -8 4 1 15 7 9 10 19 6 23
-4 4 -14 -2 -22 -12 -19 -26 -27 -15 -14 18 5 15 16 26 22 24 16 -6 52 38 43
52 -3 5 1 10 9 10 9 0 16 5 16 10 0 6 -12 10 -26 10 -14 0 -23 -4 -19 -10 3
-6 -10 -27 -29 -48 -20 -20 -36 -40 -36 -44 0 -5 -7 -8 -15 -8 -21 0 -19 27 3
40 15 10 15 10 -4 5 -13 -3 -26 1 -34 10 -7 8 -19 15 -27 15 -13 0 -13 -3 -3
-15 8 -9 8 -15 2 -15 -26 0 -20 60 7 61 12 0 10 3 -6 11 -26 12 -58 3 -47 -13
4 -8 3 -9 -4 -5 -7 4 -12 14 -12 22 0 9 -11 14 -30 14 -16 0 -30 4 -30 9 0 5
9 7 21 4 12 -3 24 -1 28 4 6 10 42 32 52 33 4 0 9 -8 12 -19z m-1227 -25 c-19
-45 -8 -88 25 -98 16 -5 12 -6 -13 -2 -33 4 -40 1 -60 -27 -13 -17 -22 -39
-20 -49 4 -23 -52 -117 -84 -143 l-25 -19 22 -12 c12 -6 25 -18 27 -26 5 -13
3 -13 -11 -1 -9 7 -26 11 -36 8 -11 -3 -27 0 -36 7 -22 16 -9 49 44 109 36 42
40 54 47 117 5 55 13 78 37 110 16 23 35 39 43 36 7 -3 18 2 24 10 22 26 31
15 16 -20z m2438 9 c-4 -10 0 -12 15 -8 15 4 21 1 21 -10 0 -8 6 -17 13 -20 7
-2 8 -8 3 -13 -5 -5 -11 -4 -13 4 -3 6 -9 12 -15 12 -6 0 -8 -7 -4 -15 4 -11
-2 -15 -24 -15 -16 0 -32 5 -35 10 -10 17 -25 11 -25 -10 0 -23 -15 -27 -24
-5 -9 25 -28 18 -21 -7 10 -32 36 -57 42 -40 3 6 10 12 16 12 6 0 19 7 29 17
11 9 18 11 18 5 0 -7 -6 -12 -12 -12 -10 0 -10 -2 0 -9 10 -6 10 -10 -1 -20
-9 -7 -13 -21 -10 -33 5 -18 3 -19 -14 -10 -16 9 -25 7 -42 -9 -12 -11 -26
-17 -33 -13 -7 5 -8 3 -3 -6 6 -9 4 -11 -5 -5 -10 6 -10 11 3 20 21 15 22 25
2 25 -20 0 -19 17 1 28 13 7 14 11 4 17 -8 5 -17 1 -23 -11 -6 -10 -20 -28
-33 -41 -12 -12 -21 -30 -20 -40 0 -10 -7 -19 -19 -21 -19 -4 -19 -3 -1 10 17
14 17 15 2 21 -12 5 -15 13 -11 27 5 16 2 20 -16 20 -17 0 -19 -3 -10 -14 8
-9 8 -16 2 -20 -5 -4 -13 -2 -16 4 -9 15 -35 -7 -35 -29 0 -13 -7 -16 -35 -13
-19 2 -35 8 -35 13 0 9 14 13 40 9 13 -1 13 1 -1 15 -9 9 -24 18 -35 19 -17 3
-20 15 -15 55 2 14 44 22 52 10 4 -8 16 -5 35 7 27 19 28 19 22 -4 -5 -19 -4
-20 14 -11 11 6 22 8 26 5 3 -3 0 -6 -6 -6 -7 0 -12 -4 -12 -10 0 -14 27 -12
33 3 3 9 9 9 24 1 27 -16 66 16 61 50 -3 28 -1 30 25 20 25 -9 35 5 14 21 -23
16 -12 22 36 20 26 -1 37 2 37 12 0 8 4 12 10 8 5 -3 7 -12 4 -20z m318 -57
c7 7 17 12 22 12 6 0 5 -5 -2 -12 -16 -16 -15 -28 3 -28 8 0 15 5 15 10 0 6
16 10 35 10 19 0 35 -5 35 -11 0 -6 -9 -8 -20 -4 -11 4 -20 2 -20 -4 0 -12 8
-14 65 -11 40 2 40 2 21 -19 -15 -17 -16 -23 -6 -36 10 -13 9 -15 -7 -15 -10
0 -24 5 -31 12 -9 9 -12 9 -12 -1 0 -8 -7 -11 -20 -8 -11 3 -20 1 -20 -4 0 -5
4 -9 10 -9 5 0 7 -7 4 -15 -4 -9 -14 -14 -23 -11 -9 2 -28 7 -42 10 -16 3 -29
15 -32 28 -8 29 -1 35 24 20 20 -13 39 -9 39 9 0 5 -9 9 -19 9 -11 0 -23 5
-26 11 -4 6 -12 8 -19 6 -7 -3 -11 8 -11 28 0 26 3 31 13 23 9 -8 16 -8 24 0z
m458 -13 c0 -20 -6 -27 -30 -31 -35 -7 -39 -19 -10 -27 21 -5 26 -28 11 -55
-11 -21 67 -129 152 -210 54 -51 56 -52 67 -31 9 15 15 18 23 10 8 -8 4 -16
-13 -31 -13 -11 -20 -23 -16 -27 4 -4 11 -1 15 6 5 8 18 14 30 15 12 0 20 6
19 11 -2 6 -6 9 -9 8 -3 -1 -6 3 -6 10 0 7 -4 20 -8 30 -4 10 -3 17 4 17 6 0
10 -3 9 -7 0 -5 2 -16 7 -26 5 -12 11 -15 19 -7 9 7 19 4 34 -10 22 -21 33
-25 31 -12 -6 38 26 50 58 21 12 -13 23 -27 23 -33 0 -6 -5 -4 -11 4 -8 12 -9
10 -4 -7 5 -18 3 -22 -8 -17 -8 3 -18 0 -22 -5 -3 -6 -12 -8 -18 -4 -18 11
-76 12 -83 1 -3 -5 -14 -2 -24 7 -16 15 -18 14 -24 -11 -6 -22 -1 -33 26 -62
51 -53 198 -114 198 -82 0 6 -13 10 -29 10 -19 0 -36 10 -54 31 -15 18 -28 26
-32 20 -3 -6 -1 -11 4 -11 6 0 11 -5 11 -10 0 -6 -8 -5 -20 2 -13 9 -16 15 -7
20 8 5 6 9 -6 14 -9 3 -14 10 -11 16 3 5 11 4 19 -2 8 -7 20 -8 26 -4 8 5 9 3
4 -6 -6 -10 -4 -12 8 -7 22 9 44 15 34 10 -12 -7 3 -23 17 -17 7 3 19 -2 26
-11 14 -17 56 -21 62 -5 2 6 9 6 17 0 23 -13 -2 -60 -31 -60 -35 0 -68 -11
-68 -22 0 -6 9 -8 20 -5 22 6 25 -5 10 -34 -15 -28 -80 -27 -80 1 0 11 -6 20
-14 20 -7 0 -16 8 -19 19 -2 10 -17 21 -33 25 -15 4 -44 23 -63 42 -42 40 -45
41 -65 12 l-16 -22 -37 44 c-21 24 -45 53 -54 63 -14 17 -18 18 -40 6 -13 -8
-28 -20 -32 -26 -4 -7 -17 -13 -27 -13 -11 0 -20 -7 -20 -15 0 -9 -5 -22 -12
-29 -10 -11 -15 -11 -25 0 -17 17 -16 27 2 20 9 -3 15 0 15 10 0 8 8 18 17 21
15 6 15 7 -3 14 -14 6 -15 8 -3 8 20 1 70 61 62 74 -4 6 -1 7 7 2 9 -5 11 -3
6 6 -3 8 -9 22 -12 32 -4 9 -11 17 -16 17 -5 0 -7 4 -4 9 3 5 -3 20 -14 34
-21 27 -27 63 -10 69 6 2 6 14 1 33 -5 17 -10 22 -10 13 -1 -16 -41 -23 -41
-7 0 4 -3 14 -6 22 -4 12 0 14 15 10 13 -3 21 -1 21 7 0 9 -10 11 -30 7 -16
-4 -30 -2 -30 3 0 13 30 40 45 40 8 0 16 9 20 19 3 10 15 21 26 24 11 3 19 9
18 14 -3 15 1 23 11 23 6 0 10 -11 10 -25z m260 -65 c3 -1 8 -2 13 -1 18 3 4
-27 -15 -33 l-23 -6 23 -15 c23 -17 29 -35 12 -35 -5 0 -10 7 -10 15 0 8 -4
15 -10 15 -16 0 -12 -27 5 -34 23 -8 18 -23 -11 -30 -31 -8 -54 -29 -54 -49 0
-11 -9 -13 -41 -7 -22 4 -51 6 -62 3 -18 -4 -19 -3 -7 6 8 6 33 11 55 11 33 0
41 4 41 18 0 20 -16 21 -73 3 -30 -9 -59 2 -31 11 8 3 9 12 0 36 -7 19 -7 34
-1 37 5 4 9 2 9 -4 0 -6 15 -7 35 -4 28 4 35 2 35 -11 0 -9 5 -16 10 -16 6 0
10 6 9 13 -3 27 2 37 20 37 11 0 23 5 26 10 3 6 -4 10 -17 10 -13 0 -30 5 -38
10 -11 8 -8 9 13 4 15 -3 27 -2 27 3 0 7 43 9 60 3z m-2183 -50 c-6 -11 -19
-20 -28 -20 -25 0 -30 -12 -11 -27 16 -13 15 -13 -3 -4 -28 13 -55 -3 -48 -29
5 -20 33 -29 33 -10 0 6 7 10 17 10 14 0 14 -2 -3 -21 -12 -14 -27 -19 -43
-16 -17 3 -36 -3 -58 -20 -28 -22 -37 -24 -61 -14 -15 6 -34 10 -42 9 -8 -1
-28 0 -44 0 -24 2 -27 4 -16 17 11 13 7 15 -26 15 -22 0 -45 -4 -53 -9 -7 -5
-22 -6 -32 -4 -15 4 -16 9 -8 24 8 16 5 21 -18 30 -20 8 -33 7 -47 -1 -13 -8
-22 -8 -29 -1 -26 26 89 34 122 8 10 -9 16 -7 26 6 13 18 45 23 45 7 0 -5 -6
-7 -14 -4 -8 3 -17 0 -21 -7 -6 -9 0 -10 21 -5 60 14 124 19 124 8 0 -12 -43
-24 -62 -17 -17 6 -45 -11 -35 -22 5 -4 12 -1 18 7 8 13 10 13 19 0 5 -8 8
-21 5 -29 -4 -10 1 -12 19 -7 14 3 28 2 31 -4 9 -15 52 -12 58 4 5 11 -2 13
-30 10 -25 -3 -34 -1 -31 8 3 7 14 14 26 16 12 2 22 8 22 13 0 6 12 8 29 4 37
-8 52 12 25 33 -17 13 -16 14 19 9 46 -7 49 9 5 22 -32 9 -31 9 15 9 32 -1 53
4 64 15 21 21 36 12 20 -13z m1384 4 c7 -8 20 -13 29 -11 20 5 50 -10 50 -25
0 -5 -7 -8 -15 -4 -8 3 -15 0 -15 -7 0 -9 -2 -9 -8 1 -7 10 -13 10 -33 0 -14
-7 -27 -17 -29 -23 -3 -5 -11 -10 -18 -12 -25 -3 -27 -14 -9 -44 24 -44 22
-75 -9 -95 -19 -13 -28 -14 -37 -5 -9 9 -6 13 11 18 28 7 23 28 -7 27 -14 0
-20 4 -17 12 3 8 1 16 -5 19 -5 4 -9 3 -8 -2 4 -22 -3 -33 -20 -33 -27 0 -36
-19 -14 -27 51 -19 52 -59 2 -48 -19 4 -29 3 -29 -5 0 -6 -4 -8 -10 -5 -5 3
-10 1 -10 -5 0 -7 8 -9 20 -5 27 9 52 -12 45 -36 -4 -11 -2 -19 4 -19 6 0 11
6 11 13 0 8 9 13 20 12 24 -2 40 -15 18 -15 -9 0 -18 -7 -22 -15 -3 -8 -17
-15 -31 -15 -14 0 -25 -4 -25 -10 0 -18 -40 -11 -41 8 -1 44 -10 86 -20 98 -8
10 -5 15 15 20 14 3 34 3 43 0 12 -4 10 1 -6 14 -17 15 -27 18 -35 10 -15 -15
-30 -12 -17 4 9 11 5 15 -20 20 -25 5 -30 10 -26 26 4 16 0 20 -19 20 -13 0
-24 5 -24 10 0 6 11 10 24 10 14 0 28 5 31 10 8 13 45 13 45 1 0 -14 49 -65
56 -58 9 9 -6 27 -22 27 -9 0 -14 6 -11 13 2 6 0 20 -5 30 -6 12 -5 19 7 23 8
3 15 10 15 16 0 5 -4 6 -10 3 -5 -3 -10 -1 -10 4 0 6 5 11 11 11 8 0 7 6 -2
17 -15 17 -19 18 94 -3 25 -5 27 -3 23 20 -4 23 -1 26 23 26 16 0 34 -7 42
-16z m-2274 -49 c3 -9 -2 -24 -11 -34 -16 -18 -16 -20 5 -35 l23 -16 -28 -29
c-22 -22 -40 -30 -84 -36 l-57 -7 24 -19 c17 -14 19 -19 7 -19 -18 0 -35 29
-29 48 5 13 -23 17 -31 4 -2 -4 2 -21 9 -39 11 -25 21 -32 55 -38 23 -4 44
-13 47 -21 8 -22 -16 -44 -47 -44 -27 0 -28 -1 -17 -29 9 -25 17 -30 59 -35
32 -5 48 -11 48 -21 0 -18 -35 -37 -62 -33 -21 3 -56 50 -57 76 -1 8 -8 30
-18 49 -15 33 -18 34 -52 29 -20 -4 -67 -10 -105 -15 -39 -5 -72 -14 -77 -22
-5 -8 -9 -10 -9 -6 0 5 -14 -3 -31 -17 -17 -14 -43 -26 -57 -26 -15 0 -40 -7
-56 -15 -15 -8 -35 -15 -43 -15 -8 0 -12 -4 -9 -9 10 -16 -5 -39 -29 -45 -13
-3 -31 -9 -42 -13 -16 -6 -16 -5 -4 10 7 9 21 17 31 17 23 0 32 11 20 26 -11
12 -35 10 -75 -5 -73 -28 -85 -30 -85 -11 0 26 9 30 100 40 44 5 95 16 113 24
17 8 74 31 125 51 90 37 112 54 72 57 -11 0 -26 1 -32 2 -7 1 -12 -4 -11 -10
1 -8 -16 -12 -47 -12 -51 0 -68 13 -27 21 12 2 3 5 -20 6 -44 1 -49 6 -34 30
7 11 11 10 19 -4 7 -14 17 -17 47 -12 34 6 37 4 32 -14 -5 -19 -4 -20 12 -5
10 9 23 16 29 16 7 0 12 6 13 13 0 10 2 10 6 0 2 -7 16 -13 29 -13 14 0 23 -5
22 -12 -2 -9 14 -14 50 -16 47 -3 53 -1 61 20 6 13 10 17 10 11 1 -7 10 -13
22 -13 16 0 19 4 13 18 -4 9 -9 36 -12 60 -3 28 -9 42 -19 42 -8 0 -11 5 -8
11 4 6 13 8 21 5 7 -3 16 -1 19 4 10 16 25 12 25 -6 0 -12 6 -15 24 -10 14 3
28 2 31 -4 3 -5 26 -10 50 -10 38 0 43 2 38 20 -6 23 -42 35 -77 26 -29 -7
-76 11 -76 30 0 38 11 44 86 44 58 0 76 -3 81 -15z m1145 -15 c11 0 18 -7 18
-19 0 -34 -24 -47 -84 -46 -46 0 -56 -2 -53 -15 2 -8 9 -14 15 -12 7 1 23 -3
34 -9 12 -7 40 -12 62 -13 22 -1 41 -6 43 -11 5 -15 -55 -38 -75 -30 -9 5 -29
7 -44 6 -16 -2 -28 2 -28 8 0 6 -7 11 -16 11 -12 0 -15 7 -12 25 3 15 -2 32
-13 44 -23 24 -23 28 -4 28 8 0 15 -4 15 -9 0 -19 16 -6 27 22 14 37 50 53 78
34 11 -8 27 -14 37 -14z m2345 -31 c7 -6 18 -9 25 -6 7 2 21 0 31 -5 10 -5 39
-12 64 -15 39 -4 45 -2 40 11 -5 12 0 15 18 14 14 -1 25 -8 25 -15 0 -7 5 -13
10 -13 6 0 10 -5 10 -11 0 -6 -6 -9 -14 -6 -8 3 -20 0 -26 -8 -8 -10 -18 -11
-36 -4 -32 12 -37 11 -29 -1 3 -5 2 -10 -3 -10 -15 0 -22 -43 -10 -58 9 -10 9
-15 -1 -22 -8 -4 -10 -13 -7 -19 9 -14 5 -14 -47 0 -41 10 -75 49 -61 70 3 5
-2 9 -12 9 -12 0 -15 6 -12 25 3 14 0 26 -6 26 -13 2 -49 5 -93 7 -41 2 -43
18 -3 24 20 3 30 0 30 -9 0 -7 7 -13 16 -13 10 0 14 6 11 14 -4 10 -1 13 9 9
7 -3 14 -1 14 4 0 13 42 14 57 2z m-3042 -55 c26 2 35 -2 37 -13 5 -52 4 -70
-3 -66 -4 3 -5 14 -2 25 7 25 -24 28 -34 4 -17 -45 52 -69 87 -32 11 12 23 18
27 15 3 -4 -4 -19 -18 -34 l-24 -26 24 6 c22 6 23 5 8 -10 -12 -13 -19 -14
-30 -5 -13 11 -100 8 -119 -4 -4 -3 -8 -1 -8 4 0 5 12 14 26 20 27 13 24 32
-4 32 -20 0 -72 -52 -72 -72 0 -7 -9 -19 -20 -26 -25 -15 -53 -3 -40 18 7 11
11 11 24 1 13 -11 16 -11 16 2 0 8 -3 17 -7 20 -5 2 -2 2 5 1 6 -2 12 5 12 14
0 10 5 23 12 30 9 9 8 12 -5 12 -10 0 -20 -7 -23 -15 -4 -8 -13 -15 -20 -15
-8 0 -17 -7 -20 -15 -6 -14 -34 -22 -34 -9 0 9 24 30 44 37 10 4 16 10 13 14
-4 3 -22 -2 -41 -11 -24 -11 -33 -21 -30 -31 4 -8 1 -15 -5 -15 -6 0 -11 7
-11 15 0 13 -4 13 -22 3 -13 -7 -27 -17 -31 -23 -5 -6 -6 -2 -3 8 5 15 2 17
-13 12 -11 -3 -22 -1 -26 5 -3 6 3 10 15 10 11 0 23 7 26 15 7 18 51 20 56 3
3 -8 14 -3 31 14 23 23 33 26 74 23 26 -2 53 1 60 6 7 6 16 8 22 5 5 -3 20 3
32 15 l24 20 -26 -5 c-19 -4 -29 -1 -33 10 -10 25 -6 41 5 22 7 -12 20 -16 44
-14z m1009 7 c3 -5 14 -7 24 -5 12 4 17 -1 18 -20 2 -28 -24 -39 -66 -29 -20
4 -23 3 -13 -7 6 -7 38 -14 70 -15 60 -3 85 -8 135 -27 23 -9 26 -14 21 -39
-6 -31 21 -84 37 -74 12 8 13 -5 1 -24 -7 -11 -10 -9 -16 8 -4 12 -18 26 -31
32 -14 5 -22 14 -19 19 4 6 3 10 -2 9 -30 -5 -50 4 -61 31 -14 31 -27 36 -51
21 -9 -6 -25 -2 -44 10 -17 10 -34 16 -39 13 -9 -6 -58 25 -58 36 0 4 18 10
41 14 43 7 50 28 11 34 -12 2 -22 8 -22 13 0 12 57 12 64 0z m-700 -86 c-6
-25 10 -36 19 -12 4 8 8 8 14 2 4 -6 20 -16 34 -24 23 -11 32 -11 60 2 56 25
73 30 87 28 8 -1 20 3 28 10 26 21 26 2 0 -24 -30 -30 -85 -50 -112 -41 -15 5
-16 4 -4 -5 12 -8 12 -13 2 -23 -9 -9 -12 -9 -12 1 0 7 -5 9 -10 6 -6 -4 -8
-10 -5 -15 6 -10 -33 -50 -49 -51 -55 -4 -109 -18 -116 -29 -4 -6 -14 -8 -23
-4 -10 4 -31 -5 -54 -23 -21 -17 -75 -50 -120 -73 -45 -24 -81 -46 -80 -49 4
-19 -17 -50 -38 -55 -14 -4 -25 -11 -25 -16 0 -6 -4 -10 -10 -10 -19 0 2 29
31 40 31 13 33 18 20 39 -10 15 -40 3 -78 -32 -18 -16 -23 -17 -23 -6 0 8 6
22 12 29 11 13 11 13 -2 3 -16 -14 -31 -17 -28 -5 0 4 -3 15 -7 26 -10 24 6
50 34 54 11 2 21 6 21 10 0 13 -47 62 -59 62 -7 0 -9 5 -5 12 4 7 3 8 -4 4 -6
-4 -30 2 -54 14 -23 11 -48 20 -55 20 -7 0 -13 7 -13 15 0 15 -14 23 -66 39
-17 5 -23 2 -28 -16 -8 -28 -44 -73 -53 -65 -3 4 0 13 6 21 7 8 10 20 6 26 -3
5 -2 10 2 10 5 0 10 14 11 31 3 42 9 49 35 48 12 0 16 -3 10 -6 -20 -8 -15
-17 15 -30 78 -33 101 -41 107 -35 4 4 11 -1 16 -11 6 -9 21 -17 34 -17 13 0
26 -4 30 -10 3 -5 12 -7 20 -3 9 3 15 -1 15 -9 0 -19 34 -50 44 -41 4 4 4 -1
0 -11 -5 -14 -3 -17 7 -14 8 3 18 -5 24 -16 6 -11 18 -22 27 -24 24 -5 123 64
107 73 -7 5 -18 0 -26 -11 -14 -18 -15 -18 -33 6 l-19 25 29 12 c20 9 28 18
24 28 -5 11 -2 13 10 9 20 -8 20 -14 -1 -30 -24 -17 -8 -32 17 -16 24 15 40
15 40 2 0 -5 -8 -10 -17 -10 -12 0 -14 -3 -6 -11 8 -8 19 -6 41 5 17 9 40 16
51 16 34 0 33 17 -2 23 -17 2 -35 0 -38 -5 -4 -7 -9 -6 -13 1 -4 6 -2 11 4 11
7 0 10 6 7 14 -3 8 1 17 9 20 9 3 12 1 9 -4 -9 -14 19 -12 33 2 9 9 12 8 12
-4 0 -9 -6 -18 -12 -21 -7 -2 2 -7 20 -11 25 -6 38 -4 51 8 10 9 20 16 23 16
3 0 32 12 64 27 48 22 55 28 39 34 -11 4 -32 8 -47 8 -16 1 -28 6 -28 12 0 6
-7 9 -14 6 -10 -4 -13 -1 -9 9 3 7 11 14 19 14 8 0 14 5 14 10 0 6 2 10 5 10
3 0 3 -11 -1 -25z m2876 -65 c0 -15 7 -20 26 -20 23 0 25 -2 14 -15 -19 -23 4
-37 57 -36 16 1 21 -4 17 -14 -4 -8 -12 -15 -19 -15 -7 0 -12 -8 -11 -17 1
-12 -5 -17 -16 -15 -10 2 -18 -3 -18 -10 0 -7 12 -14 26 -14 29 -2 29 -2 38
-31 6 -18 2 -22 -26 -28 -31 -7 -48 -20 -48 -38 0 -5 6 -5 13 -1 8 5 8 3 -2
-9 -11 -14 -11 -18 3 -23 9 -3 16 -10 16 -14 0 -15 -32 -20 -47 -8 -11 9 -16
9 -24 -3 -7 -11 -9 -11 -9 4 0 10 -10 22 -22 27 -23 9 -23 9 -2 9 25 1 42 31
18 31 -8 0 -12 5 -9 10 4 6 2 16 -3 23 -5 7 -12 29 -15 49 -6 42 2 48 53 42
39 -5 30 10 -12 20 -16 4 -28 2 -28 -3 0 -6 -7 -8 -16 -4 -9 3 -20 0 -24 -7
-5 -8 -9 -9 -14 -1 -4 6 -2 11 4 11 6 0 8 5 5 10 -4 6 -15 8 -24 5 -11 -3 -24
2 -32 11 -11 13 -11 18 -1 21 6 3 12 10 12 17 0 7 9 21 20 31 16 15 22 15 35
5 23 -19 18 -31 -10 -24 -15 4 -25 2 -25 -5 0 -6 7 -8 17 -4 11 4 14 3 9 -5
-5 -8 1 -8 24 -1 25 9 29 15 24 35 -5 18 -2 24 10 24 9 0 16 -8 16 -20z
m-4581 -126 c57 1 78 5 83 16 4 8 4 -16 1 -55 -3 -38 -10 -72 -15 -73 -5 -2
-1 -16 8 -30 15 -22 18 -49 17 -154 -1 -71 2 -128 6 -128 4 0 6 -13 3 -28 -3
-24 -8 -28 -35 -26 -18 1 -22 -1 -10 -3 14 -3 25 -14 29 -28 8 -31 71 -63 93
-46 58 42 77 50 116 47 33 -1 49 -10 76 -38 27 -27 41 -35 60 -31 17 3 28 -2
37 -17 11 -18 10 -21 -13 -30 -34 -13 -62 -13 -70 0 -3 6 -21 10 -38 10 l-32
-1 40 -15 c22 -8 63 -13 92 -12 43 3 56 -1 77 -21 l26 -24 -21 -18 c-12 -10
-18 -23 -14 -28 3 -6 2 -11 -4 -11 -5 0 -11 5 -13 10 -2 6 -12 12 -23 14 -11
2 -39 9 -63 14 -24 6 -44 6 -48 1 -3 -5 3 -9 13 -10 10 -1 2 -5 -17 -9 -24 -6
-40 -4 -53 5 -11 7 -25 11 -32 9 -25 -10 -25 26 0 42 14 9 25 23 25 31 0 13
-3 13 -15 3 -18 -15 -215 -4 -215 12 0 7 -18 9 -45 6 -39 -5 -45 -3 -45 13 0
10 -8 24 -18 31 -10 7 -22 31 -25 52 -3 22 -12 44 -19 49 -9 6 -8 7 5 3 16 -5
15 -2 -3 34 -11 22 -20 55 -20 74 0 19 -6 39 -14 43 -7 4 -18 30 -24 57 -10
47 -9 49 26 88 41 45 80 68 117 68 18 0 25 5 25 19 0 11 3 21 8 24 4 2 2 3 -4
1 -7 -1 -22 8 -35 22 -27 29 -50 31 -73 5 -17 -19 -17 -19 5 -14 17 5 20 3 13
-8 -4 -8 -10 -23 -11 -33 -5 -32 -34 -57 -57 -50 -17 4 -18 3 -6 -5 13 -10 13
-12 0 -21 -8 -5 -23 -7 -32 -4 -10 3 -18 1 -18 -4 0 -6 -9 -8 -20 -5 -22 6
-26 18 -9 28 6 4 8 13 5 21 -3 8 6 20 24 29 17 9 30 20 30 25 0 6 9 19 20 30
14 14 22 38 25 68 4 63 6 64 17 16 l10 -40 77 0z m3828 34 c10 15 14 14 41
-15 25 -27 28 -35 17 -49 -7 -10 -19 -15 -29 -11 -9 4 -16 2 -16 -3 0 -14 54
-12 68 2 9 9 12 9 12 0 0 -7 -5 -12 -10 -12 -7 0 -7 -6 0 -19 14 -27 13 -36
-5 -21 -8 6 -23 9 -33 5 -14 -4 -26 2 -41 22 -11 15 -21 23 -21 16 0 -6 5 -15
10 -18 15 -10 12 -35 -5 -35 -8 0 -14 4 -12 9 3 13 -45 53 -52 43 -3 -5 -14
-11 -23 -15 -10 -3 -18 -13 -18 -22 0 -8 -6 -15 -14 -15 -9 0 -12 7 -9 20 5
19 4 19 -38 5 -47 -17 -74 -13 -65 10 3 8 1 17 -4 20 -16 10 -11 34 10 58 18
18 22 19 30 7 7 -11 3 -18 -13 -27 -19 -11 -14 -12 42 -13 54 0 62 2 49 13
-15 11 -14 15 12 38 28 25 29 25 34 5 3 -11 1 -23 -5 -27 -6 -3 -3 -11 7 -20
16 -13 17 -11 11 24 -4 28 -2 37 9 37 8 0 14 6 14 13 0 6 8 0 18 -15 16 -24
19 -25 29 -10z m-1017 -56 c0 -4 -12 -15 -27 -24 l-27 -16 26 -12 c14 -7 29
-21 31 -31 3 -11 14 -19 27 -19 19 0 20 2 10 15 -10 12 -10 15 3 15 8 0 22 3
31 6 9 3 16 1 16 -5 0 -6 -7 -11 -15 -11 -8 0 -15 -5 -15 -11 0 -5 5 -7 10 -4
6 3 20 3 33 -1 21 -7 21 -7 2 -15 -16 -7 -14 -8 10 -6 22 1 31 8 33 23 3 23
38 39 48 23 3 -5 -4 -9 -15 -9 -12 0 -21 -5 -21 -11 0 -6 9 -8 20 -4 15 5 20
2 21 -12 0 -10 2 -33 3 -51 3 -26 1 -30 -10 -22 -7 7 -14 21 -16 32 -4 27 -22
33 -41 13 -16 -15 -68 -21 -81 -8 -4 4 -16 8 -26 8 -11 0 -20 5 -19 10 1 18
-45 23 -53 6 -6 -13 -8 -12 -14 7 -7 25 -15 27 -32 10 -9 -9 -12 -8 -12 6 0
10 9 20 20 23 11 3 20 10 20 15 0 6 -7 8 -15 4 -8 -3 -15 -1 -15 5 0 5 7 12
15 15 8 4 15 15 15 25 0 14 7 19 30 19 17 0 30 -3 30 -8z m380 -55 c0 -7 9
-18 20 -25 25 -15 26 -29 3 -35 -10 -2 0 -3 22 0 21 2 45 8 51 14 9 8 11 5 7
-10 -4 -16 -11 -19 -30 -15 -17 5 -23 3 -21 -7 4 -20 -36 -23 -71 -5 -39 21
-65 12 -48 -15 10 -17 9 -22 -5 -33 -21 -15 -23 -27 -5 -22 6 1 9 1 5 -1 -4
-2 -6 -10 -4 -16 1 -7 1 -9 -1 -4 -9 14 -52 7 -62 -10 -6 -10 -11 -13 -11 -6
0 7 -6 10 -14 7 -8 -3 -12 -12 -10 -19 7 -17 -24 -65 -42 -65 -8 0 -14 -4 -14
-10 0 -5 -4 -10 -10 -10 -14 0 -12 28 3 33 6 2 13 12 13 23 3 35 16 64 30 64
8 0 14 5 14 11 0 7 10 9 24 5 14 -3 28 -2 31 4 3 5 -3 10 -14 10 -17 0 -21 6
-21 33 0 29 3 32 30 34 27 2 29 0 16 -12 -8 -8 -19 -15 -25 -15 -6 0 -11 -4
-11 -10 0 -5 4 -10 9 -10 5 0 17 -3 27 -7 11 -4 15 -3 11 4 -4 6 -3 13 2 15 4
1 12 13 15 26 6 18 4 22 -15 22 -30 0 -19 9 14 12 18 2 27 8 27 20 0 11 7 18
20 18 11 0 20 7 20 16 0 8 5 12 10 9 6 -3 10 -12 10 -18z m1290 -7 c0 -18 -48
-30 -75 -20 -35 13 -33 -7 2 -23 15 -6 37 -21 48 -32 12 -11 30 -28 41 -37 10
-9 24 -23 31 -30 7 -7 19 -19 28 -26 25 -21 19 -52 -9 -52 -14 0 -28 -4 -31
-10 -18 -29 -105 10 -105 47 0 12 5 25 10 28 7 4 7 13 0 26 -6 11 -15 17 -21
14 -5 -4 -9 1 -9 9 0 8 5 18 10 21 11 7 -30 45 -49 45 -21 0 -11 15 19 28 16
8 39 11 50 7 11 -3 28 -2 37 4 23 13 23 13 23 1z m-962 -18 c2 -7 -2 -10 -12
-6 -11 4 -16 0 -16 -13 0 -11 8 -19 20 -20 10 -1 36 -10 56 -19 21 -10 52 -17
71 -16 28 2 33 -1 34 -20 1 -17 2 -18 6 -5 5 19 28 23 38 7 11 -18 60 -11 73
10 7 11 18 20 25 19 9 0 9 -2 0 -6 -7 -2 -13 -12 -13 -22 0 -9 -9 -24 -20 -34
-24 -21 -34 -22 -27 -3 4 11 -2 12 -30 6 -39 -9 -50 -17 -38 -27 4 -5 10 -2
12 5 5 14 43 17 43 3 0 -5 -16 -12 -36 -15 -19 -4 -38 -14 -41 -22 -7 -19 -23
-18 -23 1 0 8 -9 15 -20 15 -13 0 -18 -5 -14 -15 7 -17 -5 -19 -26 -4 -11 8
-12 12 -2 16 6 2 10 9 6 14 -3 5 -2 9 3 8 20 -3 27 2 13 11 -12 7 -8 11 17 16
18 4 30 10 27 15 -9 15 -63 3 -104 -24 -37 -24 -40 -25 -40 -6 0 10 5 19 11
19 6 0 17 6 24 14 12 12 12 16 -1 27 -13 10 -17 10 -25 -2 -8 -10 -9 -8 -4 8
6 21 4 22 -25 12 -17 -6 -39 -9 -50 -6 -11 3 -23 1 -26 -4 -3 -5 -10 -9 -16
-9 -7 0 -6 6 2 15 7 8 9 16 4 16 -5 1 5 5 21 8 17 4 36 3 43 -2 8 -7 12 -4 12
7 0 35 38 57 48 28z m-3033 -68 c-1 -13 2 -24 6 -24 5 0 9 6 9 14 0 8 9 13 24
12 19 -1 23 -6 21 -30 -1 -15 -8 -32 -15 -36 -10 -6 -9 -9 1 -16 7 -4 14 -3
17 4 2 7 10 12 18 12 10 0 11 6 4 26 -13 32 -12 37 0 29 6 -3 10 -15 10 -26 0
-10 5 -19 11 -19 15 0 49 -39 49 -57 0 -7 7 -13 15 -13 21 0 19 -26 -5 -50
-24 -24 -70 -27 -70 -5 0 8 -5 15 -12 15 -6 0 -20 8 -31 18 -19 16 -20 16 -15
-5 5 -20 3 -22 -15 -18 -12 3 -32 7 -44 8 -12 0 -25 6 -27 13 -3 8 13 13 48
16 29 2 63 12 76 21 l24 17 -42 0 c-33 0 -42 -4 -42 -17 -1 -16 -2 -17 -13 -2
-7 9 -27 20 -45 23 -17 4 -32 11 -32 16 0 12 29 20 35 10 4 -6 11 -10 16 -10
6 0 7 5 4 10 -3 6 4 14 17 19 14 6 17 10 8 10 -9 1 -21 -4 -28 -11 -9 -9 -12
-3 -12 28 0 23 3 43 6 47 13 13 32 -6 29 -29z m1067 -7 c18 -9 26 -17 19 -21
-17 -11 -51 3 -51 21 0 12 -3 13 -14 4 -12 -10 -12 -16 1 -42 9 -17 15 -51 15
-75 -1 -32 3 -44 13 -44 8 0 15 -5 15 -11 0 -7 -9 -9 -22 -6 -13 4 -31 -2 -46
-14 -20 -15 -27 -17 -34 -7 -4 7 -8 9 -8 5 0 -5 -5 -5 -10 -2 -8 5 -7 11 1 21
10 12 10 15 -2 12 -8 -2 -13 3 -11 11 2 8 -3 18 -10 22 -9 6 -8 13 6 28 11 12
14 21 9 21 -6 0 -13 -7 -17 -15 -3 -8 -12 -15 -19 -15 -25 0 -8 49 19 56 13 3
24 12 24 20 0 16 -16 19 -24 5 -8 -12 -46 -2 -46 12 0 14 31 36 52 37 9 0 24
-7 32 -15 14 -14 18 -14 41 1 14 9 26 21 26 28 1 6 3 4 6 -6 2 -9 18 -23 35
-31z m258 -127 c6 0 10 6 10 13 0 8 7 14 15 14 9 0 14 -5 12 -11 -2 -6 3 -17
11 -25 12 -13 12 -16 -2 -26 -23 -17 -20 -25 9 -25 14 0 25 -6 25 -12 0 -9 4
-8 10 2 9 13 10 13 9 0 -1 -22 -17 -67 -18 -52 -1 6 -11 12 -23 12 -21 0 -21
-1 -6 -17 11 -10 31 -16 58 -15 47 2 52 -8 11 -26 -18 -8 -28 -19 -25 -27 8
-20 -37 -31 -48 -11 -5 9 -17 16 -27 16 -13 0 -18 8 -19 30 0 20 4 30 14 30 8
0 14 7 14 16 0 8 -4 12 -10 9 -5 -3 -18 -1 -28 4 -13 7 -23 6 -32 -2 -10 -9
-12 -9 -8 3 3 8 13 17 23 19 26 5 45 26 45 51 0 17 -4 20 -20 15 -27 -9 -39 1
-33 26 5 18 7 19 15 5 5 -9 13 -16 18 -16z m-159 -83 c11 -3 23 -15 26 -26 4
-17 11 -19 45 -16 l40 4 -6 -31 -6 -31 21 19 c22 19 22 19 17 -9 -4 -19 0 -30
11 -37 27 -16 2 -11 -30 6 -17 8 -38 12 -47 8 -35 -14 -64 -12 -82 6 -13 13
-15 21 -6 30 8 8 4 9 -18 0 -21 -7 -32 -7 -42 1 -7 6 -19 7 -26 3 -25 -16 -53
-10 -54 11 -1 11 -4 26 -5 34 -2 7 1 15 8 18 6 2 13 -6 15 -19 4 -30 27 -33
58 -8 15 12 18 18 8 14 -10 -3 -18 -1 -18 4 0 6 12 12 28 14 15 2 28 9 28 16
3 23 6 27 11 11 2 -10 13 -19 24 -22z m1824 -15 c6 2 9 6 8 10 -2 4 4 5 12 2
16 -7 21 -24 6 -24 -19 0 -24 -42 -7 -52 29 -16 17 -27 -16 -14 -40 17 -111 8
-150 -18 -32 -21 -35 -31 -12 -40 32 -12 84 -7 84 9 0 8 5 15 10 15 6 0 10 -5
10 -10 0 -7 6 -7 18 -1 14 8 23 5 36 -11 18 -20 18 -21 -8 -14 -16 4 -26 2
-26 -4 0 -6 -5 -8 -12 -4 -8 5 -9 2 -5 -10 4 -10 7 -22 7 -27 0 -5 5 -9 11 -9
6 0 8 8 5 18 -6 16 -5 16 8 0 7 -10 23 -18 35 -18 11 0 21 -5 21 -11 0 -5 4
-8 9 -4 5 3 12 1 16 -5 3 -5 -3 -10 -14 -10 -10 0 -21 5 -23 12 -3 8 -13 7
-36 -4 -29 -15 -32 -15 -37 3 -7 21 -35 26 -35 7 0 -9 -3 -9 -12 0 -7 7 -17 8
-29 2 -12 -7 -26 -5 -48 8 -17 9 -31 20 -31 25 0 10 28 9 34 -2 7 -11 60 -7
63 5 2 5 -13 8 -32 8 -24 -1 -35 3 -35 12 0 10 -7 13 -24 8 -28 -7 -49 2 -40
17 3 6 11 5 21 -2 12 -10 16 -10 24 2 16 25 10 31 -23 24 -21 -4 -28 -3 -20 3
7 5 10 16 7 24 -10 26 12 30 30 6 15 -21 16 -22 15 -3 -4 39 0 45 30 45 17 0
30 5 30 11 0 6 -6 9 -13 6 -8 -3 -20 -1 -28 4 -10 6 -7 9 13 9 20 0 26 4 22
15 -4 9 0 15 8 15 10 0 13 -11 10 -39 -4 -36 -2 -39 17 -34 12 3 24 9 26 14 3
4 12 6 19 3 17 -6 31 12 16 21 -6 4 -5 13 3 26 12 19 12 19 17 -1 3 -12 10
-20 15 -18z m-1026 -187 c16 -8 31 -22 35 -30 8 -22 -16 -46 -35 -34 -19 12
-49 11 -49 -2 0 -5 5 -7 10 -4 6 3 22 -2 38 -13 15 -11 33 -21 41 -24 11 -3 9
-9 -9 -26 -25 -23 -64 -29 -75 -12 -3 6 -17 10 -30 10 -12 0 -25 6 -28 14 -7
17 2 56 13 56 4 0 11 12 15 27 7 31 23 53 37 53 5 0 22 -7 37 -15z m1356 -87
c53 4 55 3 55 -22 0 -14 -4 -26 -9 -26 -5 0 -12 -15 -16 -32 -5 -23 -9 -27
-12 -15 -8 31 -26 19 -19 -14 4 -22 2 -29 -7 -26 -6 2 -11 14 -9 25 2 14 -2
22 -12 22 -8 0 -17 6 -19 13 -3 7 -6 5 -6 -6 -1 -16 -4 -16 -38 3 -20 11 -39
17 -41 15 -7 -7 19 -35 33 -35 16 0 25 -56 11 -70 -12 -12 -2 -25 13 -15 6 3
11 22 11 41 0 38 24 45 26 8 1 -35 16 -54 41 -54 19 0 24 -4 19 -16 -3 -9 -6
-22 -6 -30 0 -8 -11 -19 -24 -25 -15 -7 -22 -17 -19 -26 5 -13 2 -13 -23 0
-19 10 -49 14 -86 12 -85 -5 -96 -17 -53 -60 13 -14 19 -25 12 -25 -27 1 -41
20 -42 62 -1 24 -6 52 -12 63 -11 19 -12 19 -31 2 -17 -15 -20 -16 -25 -3 -7
17 17 41 32 32 5 -4 12 -2 16 4 11 18 26 10 20 -10 -6 -18 -3 -20 20 -14 21 5
27 3 32 -15 6 -24 15 -26 44 -10 16 8 18 13 9 25 -7 7 -16 11 -21 8 -5 -3 -9
2 -9 11 0 9 9 19 20 22 22 6 26 18 9 29 -6 3 -9 17 -6 30 3 17 -1 25 -15 30
-11 3 -17 12 -14 20 4 9 -2 14 -17 14 -12 0 -29 5 -37 11 -11 7 -3 9 30 8 69
-2 78 0 61 10 -10 6 -5 12 18 22 17 8 32 18 32 24 1 5 3 3 5 -5 4 -12 17 -14
59 -12z m-5475 -48 c0 -5 -7 -7 -15 -4 -8 4 -15 1 -15 -6 0 -7 -7 -10 -16 -6
-9 4 -23 1 -30 -5 -7 -6 -18 -8 -23 -4 -7 3 -8 0 -5 -9 5 -13 0 -15 -22 -12
-16 2 -21 1 -12 -1 15 -4 15 -7 -4 -28 -12 -13 -25 -22 -29 -19 -9 5 -50 -15
-61 -31 -12 -16 -9 -30 4 -17 15 15 28 16 28 2 0 -5 -11 -12 -24 -16 -16 -4
-29 -17 -35 -36 -16 -46 -14 -50 20 -32 l31 16 -18 -26 c-11 -14 -25 -26 -31
-26 -7 0 -13 -9 -13 -20 0 -10 -8 -24 -17 -29 -17 -10 -16 -10 2 -11 11 -1 1
-7 -22 -14 -23 -8 -54 -23 -69 -35 -15 -11 -32 -21 -39 -21 -8 0 -13 -15 -13
-38 0 -20 -6 -51 -13 -67 l-12 -30 -9 45 c-4 25 -6 51 -3 59 3 8 -2 22 -11 33
-19 20 -11 39 8 20 7 -7 16 -12 20 -12 10 0 58 94 58 113 0 8 9 22 20 32 11
10 20 24 20 32 0 34 82 134 142 173 58 37 67 40 135 40 40 0 73 -4 73 -10z
m2060 -38 c0 -4 -6 -14 -12 -21 -7 -8 -1 -6 14 4 33 20 58 17 37 -6 -8 -8 -23
-25 -34 -39 l-20 -24 38 23 c21 13 41 20 45 16 7 -7 -37 -50 -59 -57 -24 -8
62 -118 93 -118 5 0 8 9 8 20 0 27 18 25 30 -2 8 -20 9 -18 9 14 1 20 6 40 11
43 18 11 105 -38 108 -60 8 -60 12 -65 42 -65 20 0 30 5 30 15 0 9 12 20 27
26 18 7 23 13 15 18 -9 5 -7 13 6 31 9 14 27 45 39 70 14 29 22 38 22 25 1
-11 -10 -43 -23 -72 -28 -60 -22 -77 32 -87 40 -7 95 -43 89 -59 -2 -6 -18
-16 -37 -22 -25 -8 -37 -20 -45 -46 -7 -20 -23 -39 -39 -47 -15 -8 -30 -20
-33 -28 -6 -17 -23 -19 -23 -1 0 8 -16 12 -47 11 l-48 -1 -3 -49 c-1 -27 -7
-79 -13 -116 -10 -64 -20 -81 -34 -59 -3 6 -18 9 -33 7 -21 -1 -27 -7 -25 -24
2 -20 1 -21 -17 -10 -15 10 -22 10 -32 0 -16 -16 -38 -15 -52 3 -9 11 -20 12
-51 5 -34 -8 -48 -5 -92 15 -63 30 -63 30 -63 4 0 -18 -4 -21 -30 -16 -29 6
-49 -6 -30 -18 6 -4 1 -14 -12 -25 l-23 -19 37 6 c31 4 38 2 49 -18 12 -23 12
-23 20 -4 4 11 8 34 8 50 2 60 21 2 21 -64 0 -53 2 -62 14 -52 19 16 46 3 46
-23 -1 -11 -7 -46 -14 -76 -7 -30 -11 -72 -8 -92 3 -24 0 -38 -7 -38 -6 0 -11
-6 -11 -14 0 -21 -26 -26 -110 -21 -108 7 -198 32 -251 71 l-46 34 -6 97 c-3
54 -12 123 -20 153 -9 32 -18 133 -22 245 -6 177 -5 188 10 168 21 -29 23 -29
69 9 22 18 53 33 72 35 31 3 34 1 34 -23 0 -15 -8 -33 -17 -40 -28 -20 -7 -31
82 -44 44 -7 97 -17 118 -22 36 -9 38 -11 32 -39 -6 -28 -5 -29 29 -29 19 0
38 -5 42 -11 10 -16 92 -51 152 -64 46 -10 54 -9 61 4 18 35 33 95 39 159 l7
67 45 13 45 12 -49 -5 c-27 -3 -56 -10 -65 -17 -13 -10 -14 -10 -4 1 12 14 7
41 -8 41 -4 0 -6 -7 -3 -15 7 -18 -17 -20 -34 -3 -7 7 -12 8 -12 4 0 -5 8 -15
18 -23 15 -12 13 -13 -21 -9 -41 4 -85 29 -94 52 -3 8 -12 14 -20 14 -8 0 -11
5 -8 10 3 6 1 10 -5 10 -6 0 -8 5 -4 11 3 6 21 9 39 7 19 -2 31 0 29 4 -3 4
-25 8 -50 8 -47 0 -58 16 -29 40 20 17 19 32 -2 28 -12 -2 -19 4 -21 20 -2 12
-10 22 -18 22 -8 0 -14 10 -14 26 0 30 16 64 31 64 6 0 6 -7 -1 -19 -20 -39
-9 -45 15 -8 24 34 45 48 45 29z m2260 -20 c8 -2 25 -13 38 -25 l23 -21 6 22
c3 12 12 22 19 22 22 0 16 -27 -8 -44 l-22 -16 27 0 c32 0 79 -22 120 -56 16
-13 33 -24 39 -24 6 0 20 -8 30 -17 16 -14 18 -14 13 -1 -4 9 0 18 8 21 11 4
14 -1 12 -19 -3 -32 50 -80 70 -64 9 8 15 8 20 0 3 -5 27 -11 53 -12 44 -1 44
-2 10 -5 -24 -3 -38 -9 -38 -18 0 -8 -6 -12 -14 -9 -9 4 -13 -4 -12 -25 1 -18
6 -31 14 -31 6 0 12 -4 12 -10 0 -15 -16 -12 -34 5 -8 8 -21 15 -29 15 -8 0
-22 16 -31 35 -15 31 -19 34 -38 24 -14 -8 -23 -8 -31 0 -6 6 -17 11 -24 11
-26 0 -55 40 -49 68 3 15 3 32 -2 39 -12 19 -54 31 -89 26 -25 -4 -32 -1 -37
15 -4 11 -17 23 -29 27 -14 4 -17 8 -9 12 10 4 10 8 1 19 -8 10 -22 12 -45 8
-24 -4 -34 -2 -34 6 0 15 33 41 40 32 3 -4 12 -8 20 -10z m-582 -63 c60 -15
75 -27 67 -53 -11 -34 -12 -86 -2 -86 11 0 2 -73 -20 -152 l-16 -58 -47 2 -47
2 -11 52 c-6 29 -8 62 -5 74 4 14 -1 26 -13 35 -11 8 -14 15 -7 15 6 0 13 10
15 22 2 13 11 24 23 26 31 6 37 17 8 19 -34 2 -45 14 -50 61 -4 33 -1 41 14
45 31 8 43 7 91 -4z m-3764 -24 c28 -21 16 -81 -28 -146 -20 -30 -36 -59 -36
-66 0 -7 -5 -13 -11 -13 -6 0 -8 -7 -5 -16 4 -10 2 -13 -6 -8 -8 5 -9 2 -5
-10 4 -9 3 -15 -2 -12 -14 9 -28 -17 -29 -55 -1 -29 2 -36 16 -35 11 1 17 -6
17 -19 0 -11 12 -28 26 -38 26 -17 30 -49 8 -63 -17 -10 -71 37 -66 57 3 11 0
19 -6 19 -14 0 -16 147 -4 168 5 7 3 12 -4 12 -8 0 -10 24 -7 85 4 81 6 87 38
120 37 38 72 45 104 20z m317 -51 c10 -19 14 -71 14 -200 0 -116 4 -177 11
-182 6 -4 17 -17 23 -30 11 -22 14 -22 25 -7 11 16 13 16 26 0 8 -9 24 -21 37
-26 13 -5 23 -15 23 -23 0 -20 77 -86 101 -86 11 0 37 10 57 21 l38 22 34 -32
c26 -23 43 -31 64 -29 24 3 31 -2 39 -25 12 -36 5 -42 -25 -24 -12 8 -33 18
-46 22 -12 3 -34 17 -47 31 -23 23 -55 33 -55 17 0 -10 59 -59 122 -101 49
-34 70 -56 44 -46 -9 3 -16 1 -16 -5 0 -6 -8 -11 -17 -11 -17 -1 -17 -1 0 -14
9 -7 17 -16 17 -19 0 -7 -91 -1 -112 8 -11 4 -18 3 -18 -4 0 -8 -16 -11 -43
-10 -46 3 -67 -5 -67 -23 0 -18 32 -48 51 -48 35 0 29 -19 -8 -25 -43 -7 -52
-10 -74 -26 -12 -9 -29 -8 -72 6 -72 23 -89 17 -77 -26 7 -23 6 -35 -2 -40
-20 -12 20 -59 68 -80 51 -23 57 -34 13 -25 -44 8 -89 43 -89 69 0 16 -3 18
-12 9 -10 -10 -8 -18 5 -41 19 -32 22 -51 8 -51 -5 0 -12 11 -15 25 -9 35 -26
31 -26 -5 0 -16 -4 -30 -8 -30 -10 0 4 105 17 135 19 42 28 82 30 140 1 33 6
79 12 102 5 25 5 52 0 66 -9 24 -8 54 4 117 6 32 4 37 -19 48 -20 9 -32 9 -49
0 -47 -24 -57 -28 -75 -28 -16 0 -56 51 -48 61 2 2 6 21 9 42 4 28 2 37 -9 37
-10 0 -14 13 -15 43 0 38 -1 40 -11 17 -5 -14 -14 -33 -19 -43 -5 -10 -7 -22
-4 -27 8 -13 -1 -12 -28 3 -12 6 -23 13 -25 14 -10 4 72 111 83 107 14 -6 25
25 25 69 0 35 13 60 61 118 22 26 39 52 39 58 0 20 16 12 31 -15z m513 7 c10
-15 -5 -41 -23 -41 -17 0 -44 -34 -34 -44 3 -3 13 3 21 15 23 34 38 7 16 -30
-14 -23 -25 -30 -44 -29 -23 3 -25 0 -26 -42 -1 -44 -2 -45 -30 -42 -16 2 -34
8 -41 14 -27 22 -8 68 29 68 10 0 18 6 18 13 0 29 23 90 41 108 20 20 64 26
73 10z m2138 -28 c26 -23 23 -38 -13 -66 -22 -17 -33 -35 -34 -56 -2 -25 1
-31 12 -27 8 3 19 6 24 6 6 0 7 5 4 11 -4 6 2 5 14 -3 31 -19 103 8 111 42 6
24 7 24 17 5 9 -15 8 -22 -4 -31 -31 -22 -4 -35 68 -31 65 4 72 2 86 -19 15
-24 41 -35 27 -11 -6 8 -3 8 9 -2 9 -7 25 -10 34 -7 16 5 16 4 -1 -8 -18 -14
-17 -15 10 -22 48 -11 126 -54 175 -94 49 -41 138 -100 151 -100 11 0 38 68
40 99 1 14 6 32 11 39 14 18 67 16 68 -3 6 -64 5 -88 -3 -150 -6 -38 -15 -76
-20 -82 -19 -24 -87 -10 -110 22 -4 6 -19 -2 -36 -18 -31 -30 -42 -34 -42 -13
0 8 -9 12 -24 11 -13 -2 -40 8 -60 21 -19 13 -43 24 -54 24 -10 0 -29 12 -43
26 -22 24 -28 26 -84 20 -129 -14 -160 -21 -159 -36 5 -51 38 -139 66 -175 29
-38 127 -109 136 -100 2 2 -7 19 -21 37 -27 37 -71 132 -57 123 5 -3 28 -37
50 -75 38 -65 74 -100 88 -86 3 4 -3 13 -14 20 -18 14 -18 15 -1 34 17 19 17
20 -3 25 -23 6 -27 27 -5 27 8 0 15 -5 15 -12 0 -6 6 -3 14 7 12 17 15 10 20
-65 4 -47 6 -94 5 -105 -2 -24 6 -64 22 -112 18 -55 0 -66 -105 -64 -63 1
-108 9 -173 30 -136 44 -301 79 -238 51 16 -8 13 -9 -14 -7 l-34 2 1 70 c1 39
3 129 4 202 1 73 4 131 5 129 2 -1 9 -20 17 -42 8 -21 15 -31 15 -21 1 9 -9
38 -20 62 -21 45 -21 64 0 50 6 -3 11 -18 11 -32 l0 -26 20 26 c11 14 20 33
20 44 0 23 -14 45 -26 42 -5 -2 -27 5 -48 14 -39 17 -40 18 -18 33 12 8 22 19
22 25 0 15 -22 10 -44 -10 -12 -11 -33 -23 -48 -26 -24 -6 -29 -3 -39 21 -34
89 -21 129 85 259 36 44 66 83 66 88 0 13 33 7 52 -10z m-1744 -219 c15 -12
17 -24 12 -65 -4 -28 -14 -57 -24 -67 -18 -16 -18 -16 -2 10 19 29 12 39 -30
44 -19 2 -65 -31 -53 -39 2 -1 18 -9 34 -17 17 -9 31 -25 33 -35 1 -11 -11
-60 -28 -110 l-29 -90 6 58 c3 38 2 57 -6 57 -6 0 -13 -12 -17 -27 -13 -65
-21 -69 -28 -14 -4 31 -3 57 2 60 16 10 24 51 23 118 -1 56 2 67 24 87 14 13
25 28 25 35 0 16 37 14 58 -5z m4638 -79 c24 -14 44 -30 44 -34 0 -5 -17 -22
-37 -37 -20 -16 -53 -44 -72 -61 -37 -36 -91 -46 -91 -18 0 8 -5 15 -11 15
-19 0 -4 74 26 125 27 44 30 47 62 42 19 -3 54 -18 79 -32z m-6590 -60 c10 -8
29 -15 42 -15 15 0 26 -9 32 -25 6 -16 17 -25 32 -25 21 -1 58 -13 111 -35 13
-5 17 -2 17 14 0 14 13 27 41 42 36 18 44 19 56 7 12 -13 12 -19 -4 -47 -18
-31 -18 -32 7 -51 32 -24 21 -35 -16 -15 -34 17 -54 19 -54 5 0 -5 7 -10 17
-10 9 0 13 -3 10 -6 -9 -10 -65 15 -71 32 -3 8 -10 14 -16 14 -16 0 17 -45 44
-59 12 -7 45 -42 72 -78 75 -98 125 -153 136 -147 5 3 16 0 25 -7 13 -11 17
-10 28 5 8 10 16 35 20 56 6 34 3 42 -23 67 -16 15 -38 33 -48 39 -10 7 -15
15 -11 20 4 4 21 0 38 -10 17 -10 33 -15 37 -11 8 8 -23 34 -102 88 -57 39
-69 57 -40 57 13 0 11 5 -7 21 l-24 21 25 -15 c14 -8 26 -21 26 -28 1 -8 2
-20 3 -26 0 -7 21 -22 46 -33 25 -11 45 -24 45 -29 0 -4 11 -6 25 -3 14 2 35
-2 48 -11 21 -13 28 -13 72 4 28 11 57 19 65 19 15 0 34 34 51 92 16 59 24 65
56 48 28 -16 28 -16 26 -113 -3 -87 -1 -97 17 -107 11 -6 20 -17 20 -25 0 -7
22 -36 48 -64 27 -28 54 -63 62 -78 7 -15 25 -38 39 -50 l25 -22 -30 -5 c-16
-4 -48 -12 -71 -20 -29 -9 -40 -10 -36 -2 4 6 -18 -9 -48 -35 -101 -84 -118
-93 -177 -90 -32 1 -20 15 27 31 48 16 51 22 14 37 -25 10 -22 11 30 12 58 1
97 13 97 31 0 5 -10 11 -22 13 -13 2 -3 5 22 7 l45 2 -34 10 -34 9 28 15 c15
7 31 12 35 9 5 -3 11 -1 14 3 7 12 -111 31 -198 34 l-68 1 6 38 c5 31 3 40
-13 49 -13 7 -22 7 -26 0 -6 -10 -26 -117 -30 -156 -2 -26 -28 -54 -49 -54
-21 0 -142 80 -138 92 1 5 -2 6 -8 3 -6 -4 -22 -4 -35 -1 -17 4 -23 12 -20 26
3 17 -2 20 -31 20 -33 0 -45 12 -24 25 6 4 8 10 5 15 -3 5 3 13 12 19 10 6 12
11 6 11 -18 0 -55 -39 -48 -50 10 -17 -17 -11 -38 7 -18 17 -20 17 -43 -10
-13 -15 -41 -34 -61 -41 -21 -7 -38 -19 -38 -27 0 -7 -11 -25 -25 -39 l-25
-25 33 -3 c20 -2 38 3 48 13 9 9 19 14 22 11 7 -7 -40 -45 -58 -47 -26 -2 -45
3 -52 14 -5 9 -10 9 -19 0 -36 -36 78 -35 155 0 68 31 73 32 55 11 -18 -22
-84 -54 -111 -54 -13 0 -30 -5 -38 -11 -11 -7 6 -9 57 -7 54 2 74 0 78 -11 3
-8 14 -11 25 -8 24 6 30 -2 21 -27 -5 -14 -19 -19 -54 -21 -62 -5 -96 -23 -39
-21 23 0 42 4 42 8 0 5 9 3 20 -4 16 -10 19 -20 14 -46 -4 -19 -1 -38 6 -47 9
-11 5 -16 -27 -24 -107 -29 -334 -43 -370 -22 -19 10 -20 69 -3 126 5 17 12
68 14 115 3 47 12 139 21 205 16 126 19 215 8 215 -3 0 -15 -7 -25 -17 -17
-15 -18 -15 -18 14 0 43 51 134 90 161 38 26 59 28 86 7z m2120 -167 c4 -5 2
-8 -4 -8 -7 0 -12 -6 -12 -14 0 -7 -6 -19 -14 -25 -7 -6 -21 -36 -31 -67 -9
-30 -24 -58 -31 -61 -8 -3 -14 -11 -14 -17 0 -7 -10 -18 -22 -23 -27 -13 -68
-23 -68 -17 0 3 10 9 23 14 14 6 16 9 6 9 -9 1 -26 -8 -39 -19 -25 -22 -55
-26 -66 -9 -3 6 -1 29 7 51 11 33 22 44 70 69 50 25 59 34 64 63 4 18 6 42 5
52 -1 11 -2 22 -1 25 1 7 117 -14 127 -23z m108 -60 c3 -13 8 -68 11 -124 6
-98 6 -102 -22 -147 -15 -26 -35 -47 -43 -47 -9 0 -31 -16 -50 -35 -25 -26
-37 -32 -47 -24 -9 8 -21 8 -42 1 -16 -6 -31 -8 -34 -6 -2 2 -16 -7 -32 -22
l-28 -25 -33 32 -34 33 -36 -19 c-28 -15 -57 -19 -134 -20 -97 0 -121 -8 -58
-18 18 -3 51 -10 73 -16 34 -9 28 -10 -43 -6 -88 5 -132 19 -113 38 14 14 -24
47 -55 47 -13 0 -26 5 -30 11 -3 6 -22 18 -41 26 -35 14 -35 15 -31 68 6 68
20 85 70 85 26 0 41 5 45 16 4 12 14 14 34 10 26 -5 29 -3 29 22 1 25 2 26 14
9 8 -10 12 -26 10 -35 -6 -26 11 -45 42 -45 16 0 63 3 105 7 65 6 79 5 93 -10
12 -12 14 -19 6 -24 -20 -13 16 -31 72 -36 29 -3 75 -11 102 -19 66 -20 82
-20 66 0 -7 8 -21 15 -31 15 -11 0 -19 5 -19 11 0 7 12 8 33 4 17 -4 36 -8 40
-9 15 -2 46 96 53 168 4 44 13 77 23 88 22 23 30 22 35 -4z m4312 -158 c-9
-27 -16 -62 -16 -77 0 -66 -81 -133 -135 -113 -30 11 -33 45 -10 109 8 23 17
64 21 92 l7 50 26 -23 c29 -26 79 -27 87 -2 16 52 15 50 26 31 7 -13 5 -32 -6
-67z m-476 43 c0 -8 9 -28 20 -43 l21 -29 -22 -12 c-36 -19 -217 -35 -231 -21
-17 17 26 59 78 77 21 7 40 18 40 24 1 6 2 12 3 14 0 1 21 3 46 3 33 1 45 -3
45 -13z m-3042 -28 c-11 -25 -10 -29 11 -46 13 -11 30 -19 38 -19 12 0 14 -7
9 -27 -4 -16 -10 -54 -13 -86 -5 -58 -6 -59 -49 -78 -24 -10 -50 -16 -57 -13
-7 2 -19 24 -26 48 -11 37 -10 51 5 97 15 47 84 162 92 154 1 -1 -3 -15 -10
-30z m-1534 -339 c-4 -19 1 -32 22 -53 15 -15 26 -30 24 -32 -3 -2 7 -13 21
-24 31 -23 148 -38 193 -26 16 5 32 6 35 3 3 -2 -6 -8 -19 -11 -22 -6 -23 -7
-4 -14 18 -7 -58 -3 -143 7 -23 3 -58 16 -79 30 -37 26 -55 27 -32 3 7 -8 14
-21 14 -29 1 -8 5 -23 9 -32 4 -11 3 -18 -4 -18 -7 0 -14 7 -17 15 -4 8 -10
15 -15 15 -5 0 -1 -16 8 -35 28 -58 63 -68 196 -56 127 12 153 12 117 1 -14
-4 -56 -9 -95 -9 -55 -1 -66 -4 -51 -12 10 -6 48 -9 87 -7 60 3 73 7 94 31 14
15 23 25 19 23 -3 -2 -20 0 -39 5 -21 6 -43 6 -61 -1 l-29 -10 25 20 c14 11
29 20 33 20 11 0 57 36 54 41 -1 2 18 24 41 49 25 25 38 34 30 21 -7 -13 -23
-43 -35 -65 l-23 -41 25 28 c14 16 23 32 20 37 -3 4 1 10 9 13 19 7 26 -34 26
-143 0 -70 -3 -90 -17 -102 -23 -20 -63 -32 -63 -20 0 5 -19 3 -42 -5 -62 -22
-271 -22 -320 -1 -54 24 -72 58 -63 116 4 26 8 61 9 77 2 17 6 38 11 48 4 9 3
35 -3 57 -5 22 -6 42 -2 45 5 3 11 -3 13 -12 3 -10 5 3 6 30 0 26 6 47 11 47
6 0 8 -11 4 -24z m-461 -774 c12 -13 15 -31 11 -71 -5 -60 -11 -74 -25 -66 -5
4 -9 -3 -9 -14 0 -12 5 -21 10 -21 6 0 10 5 10 10 0 12 10 13 29 1 11 -7 11
-13 -3 -32 -9 -13 -16 -40 -16 -60 0 -49 -8 -53 -37 -18 -22 26 -24 34 -14 55
25 55 5 84 -58 84 -17 0 -31 3 -31 8 0 4 14 27 30 52 16 25 30 50 30 56 0 33
48 44 73 16z m2685 -44 c13 -13 17 -184 4 -192 -4 -2 -27 -1 -52 4 -41 7 -47
6 -78 -21 -39 -34 -52 -36 -52 -9 0 19 9 24 36 21 21 -2 24 29 6 57 -16 25
-16 26 1 19 20 -7 37 25 37 69 0 48 67 83 98 52z m432 -35 c0 -5 14 -16 30
-25 37 -21 41 -61 8 -79 -16 -8 -23 -9 -26 -1 -2 6 -9 9 -17 6 -8 -3 -12 -11
-9 -18 6 -15 -47 -46 -78 -46 -46 0 -70 59 -52 127 5 18 10 20 33 13 36 -10
81 -1 88 16 5 15 23 19 23 7z"/>
<path d="M4081 1666 c-6 -7 -8 -22 -4 -31 4 -12 3 -16 -4 -12 -7 5 -9 -1 -5
-15 3 -12 1 -19 -4 -15 -15 9 -9 -62 6 -76 10 -10 12 -9 7 6 -11 30 13 18 34
-18 12 -19 25 -36 30 -36 5 -1 21 -3 37 -5 72 -9 212 -38 206 -43 -3 -3 -31
-9 -62 -12 -50 -5 -46 -6 36 -8 101 -1 132 -11 132 -41 0 -16 26 -40 44 -40
14 0 4 39 -15 64 -17 21 -18 26 -5 26 9 0 16 5 16 10 0 7 -7 7 -20 0 -12 -7
-39 -8 -65 -4 -38 5 -53 15 -96 61 -27 31 -59 74 -71 97 -11 22 -27 45 -35 49
-8 5 -19 21 -24 35 -10 26 -11 26 -24 9 -8 -11 -11 -25 -8 -33 3 -8 0 -14 -7
-14 -13 0 40 -77 76 -111 30 -28 31 -43 2 -28 -31 16 -42 29 -76 82 -16 26
-32 44 -35 40 -7 -6 -12 5 -21 50 -7 29 -27 35 -45 13z"/>
</g>
</svg>
