<?xml version="1.0" standalone="no"?>
<!DOCTYPE svg PUBLIC "-//W3C//DTD SVG 20010904//EN"
 "http://www.w3.org/TR/2001/REC-SVG-20010904/DTD/svg10.dtd">
<svg version="1.0" xmlns="http://www.w3.org/2000/svg"
 width="1280.000000pt" height="720.000000pt" viewBox="0 0 1280.000000 720.000000"
 preserveAspectRatio="xMidYMid meet">
<metadata>
Created by potrace 1.15, written by Peter Selinger 2001-2017
</metadata>
<g transform="translate(0.000000,720.000000) scale(0.100000,-0.100000)"
fill="#000000" stroke="none">
<path d="M1735 5033 c-38 -1 -115 -7 -170 -13 -55 -6 -163 -15 -240 -20 -220
-15 -353 -64 -439 -162 -104 -117 -142 -247 -166 -568 -30 -403 -34 -560 -22
-778 17 -300 41 -573 52 -597 5 -11 16 -51 25 -89 16 -68 69 -176 85 -176 5 0
11 -8 14 -18 7 -22 98 -93 156 -121 41 -21 112 -36 275 -61 189 -29 1409 -42
2020 -21 507 17 609 28 698 74 87 44 168 111 192 157 10 19 24 40 31 47 7 8
19 33 25 56 6 23 15 47 20 53 5 6 16 60 24 120 8 60 20 141 26 181 40 276 37
897 -6 1273 -34 291 -69 388 -181 493 -116 108 -234 133 -804 167 -128 8
-1433 10 -1615 3z m511 -788 c20 -14 40 -25 45 -25 4 0 38 -20 75 -45 37 -25
108 -68 158 -96 50 -27 105 -59 121 -69 17 -11 48 -29 70 -41 22 -12 42 -25
45 -29 3 -4 17 -13 32 -21 49 -26 163 -92 168 -98 6 -7 71 -45 117 -68 18 -9
35 -25 39 -35 5 -18 -11 -48 -26 -48 -6 0 -95 -52 -158 -93 -15 -9 -47 -27
-72 -38 -25 -12 -47 -26 -49 -31 -2 -5 -13 -14 -25 -19 -11 -5 -39 -21 -61
-35 -22 -13 -58 -34 -80 -45 -22 -11 -60 -33 -85 -49 -25 -16 -52 -33 -60 -37
-8 -4 -37 -22 -64 -41 -27 -19 -63 -41 -80 -49 -17 -7 -51 -27 -76 -43 -56
-37 -103 -59 -112 -53 -5 2 -8 261 -8 575 l0 570 25 -6 c13 -3 41 -17 61 -31z"/>
<path d="M10100 4928 c-9 -23 -12 -2311 -3 -2335 7 -19 286 -18 302 1 6 7 14
35 17 62 10 71 17 82 40 55 102 -118 177 -156 304 -155 161 1 257 96 309 306
33 133 41 235 41 573 0 337 -8 441 -40 570 -33 132 -77 198 -165 244 -32 17
-58 21 -128 21 -78 0 -96 -4 -152 -31 -58 -28 -155 -115 -155 -139 0 -6 -7
-10 -15 -10 -13 0 -15 57 -17 428 l-3 427 -163 3 c-161 2 -163 2 -172 -20z
m577 -947 c55 -52 73 -192 73 -574 0 -420 -27 -552 -118 -576 -54 -15 -162 14
-162 43 0 8 -6 16 -12 18 -10 4 -14 110 -16 475 -2 451 -2 473 18 525 40 108
150 153 217 89z"/>
<path d="M4740 4853 c0 -10 33 -135 60 -233 12 -41 30 -111 41 -155 11 -44 23
-89 28 -100 9 -20 40 -136 67 -255 8 -36 23 -92 34 -125 10 -33 26 -89 35
-125 23 -95 59 -229 95 -360 18 -63 36 -131 41 -150 5 -19 9 -200 9 -403 l0
-367 178 2 177 3 5 400 c5 348 8 407 23 450 10 28 27 86 38 130 10 44 23 89
28 100 6 11 19 58 30 105 11 47 31 128 46 180 14 52 37 136 50 185 13 50 33
122 45 160 21 71 54 196 91 340 11 44 26 98 33 120 8 22 17 55 21 73 l7 32
-175 0 -176 0 -16 -57 c-9 -31 -21 -80 -25 -107 -5 -28 -13 -71 -19 -96 -5
-25 -21 -99 -35 -165 -14 -66 -35 -158 -46 -205 -21 -89 -64 -307 -84 -422
-11 -69 -26 -100 -26 -57 0 14 -4 29 -9 34 -5 6 -16 64 -25 130 -10 66 -22
131 -27 145 -5 14 -18 72 -29 130 -11 58 -28 155 -40 215 -11 61 -23 117 -26
125 -3 8 -14 56 -24 105 -11 50 -24 110 -30 135 -5 25 -12 55 -15 68 -5 22 -7
22 -180 22 -96 0 -175 -3 -175 -7z"/>
<path d="M7924 4847 c-2 -7 -3 -74 -2 -148 l3 -134 180 -5 180 -5 3 -987 2
-988 169 0 c150 0 170 2 175 17 4 9 6 447 6 973 -1 525 -1 963 -1 973 1 15 17
17 181 17 l180 0 0 150 0 150 -535 0 c-430 0 -537 -3 -541 -13z"/>
<path d="M6190 4264 c-8 -3 -34 -14 -57 -25 -24 -10 -48 -19 -55 -19 -33 -1
-168 -157 -168 -195 0 -5 -6 -22 -14 -36 -18 -35 -23 -58 -46 -213 -23 -156
-28 -551 -9 -679 26 -183 41 -250 68 -309 31 -67 113 -168 137 -168 8 0 14 -4
14 -9 0 -5 12 -12 28 -16 15 -3 43 -14 62 -23 28 -13 66 -17 180 -17 128 0
152 3 205 23 67 26 105 52 159 109 61 65 80 111 128 313 6 27 11 187 11 410
l1 365 -28 110 c-15 61 -37 130 -49 155 -23 47 -76 122 -91 129 -5 2 -17 12
-27 22 -11 11 -45 31 -77 46 -53 25 -69 27 -207 30 -82 1 -157 0 -165 -3z
m226 -279 c13 -16 24 -29 24 -29 0 -1 9 -50 20 -111 17 -96 20 -152 19 -440
-1 -279 -4 -346 -20 -435 -16 -88 -24 -109 -48 -133 -23 -23 -37 -29 -75 -29
-78 0 -111 47 -127 177 -12 104 -11 768 1 863 10 77 48 157 78 166 9 2 37 3
61 1 33 -2 49 -10 67 -30z"/>
<path d="M11620 4263 c-14 -3 -29 -8 -35 -13 -5 -4 -27 -13 -49 -20 -21 -7
-46 -20 -56 -30 -10 -10 -22 -19 -26 -21 -26 -11 -89 -108 -115 -176 -45 -120
-59 -253 -59 -578 0 -295 12 -473 36 -540 8 -22 21 -60 29 -85 18 -57 78 -136
130 -172 84 -57 147 -73 296 -73 81 0 142 4 150 11 8 6 33 16 57 24 23 7 47
19 53 27 6 7 17 13 23 13 20 0 108 104 133 159 22 47 26 70 27 165 l1 110
-105 12 c-58 7 -124 13 -147 13 l-41 1 -7 -62 c-4 -35 -16 -90 -26 -123 -22
-69 -56 -96 -125 -97 -107 -1 -138 85 -132 358 l3 119 298 3 c227 2 297 5 297
15 4 130 -2 470 -10 540 -13 114 -18 141 -36 175 -8 15 -14 31 -14 36 0 14
-66 109 -92 132 -12 12 -48 34 -78 49 -52 27 -63 28 -205 31 -82 1 -161 0
-175 -3z m209 -259 c46 -33 54 -74 59 -292 l4 -203 -128 3 -129 3 1 201 c0
189 2 203 23 245 13 24 28 47 35 51 21 14 111 8 135 -8z"/>
<path d="M7032 3533 l3 -708 26 -71 c32 -90 70 -139 133 -172 45 -24 62 -27
146 -27 83 0 102 3 150 27 61 29 170 129 170 155 0 14 29 38 36 30 3 -3 11
-45 17 -94 l12 -88 140 0 140 0 0 825 0 825 -175 0 -175 0 -5 -660 c-6 -750 0
-700 -91 -742 -58 -28 -87 -28 -116 -4 -48 40 -48 37 -51 731 -1 360 -4 661
-7 668 -3 9 -49 12 -180 12 l-176 0 3 -707z"/>
<path d="M8890 3577 c0 -620 1 -669 20 -755 22 -104 35 -132 82 -183 63 -68
101 -83 208 -84 78 0 105 4 149 23 56 25 143 104 176 160 11 17 22 32 26 32 4
0 10 -19 14 -42 4 -24 13 -65 20 -93 l12 -50 139 0 139 0 0 825 0 825 -180 0
-180 0 -5 -671 c-4 -542 -8 -674 -18 -687 -24 -28 -103 -67 -137 -67 -41 0
-81 43 -91 98 -4 20 -8 327 -8 682 l-1 645 -182 3 -183 2 0 -663z"/>
</g>
</svg>
